<svg width="216" height="134" viewBox="0 0 216 134" fill="none" xmlns="http://www.w3.org/2000/svg">
<mask id="path-1-outside-1_217_2596" maskUnits="userSpaceOnUse" x="7.60729" y="6.50264" width="190.223" height="97.592" fill="black">
<rect fill="white" x="7.60729" y="6.50264" width="190.223" height="97.592"/>
<path d="M12.6492 57.3296C12.6061 57.1686 13.2595 56.8382 14.6095 56.3384C15.983 55.7979 17.1206 55.4068 18.0221 55.1652C21.596 54.2076 23.5886 54.1741 23.9998 55.0647L33.8473 75.2021L32.0653 52.9035C32.0083 51.918 33.8794 50.9163 37.6787 49.8983C38.6124 49.6481 39.8049 49.3976 41.2561 49.1467C42.7073 48.8959 43.4545 48.851 43.4976 49.012L43.5161 83.2747C43.5253 83.8244 42.6661 84.417 40.9384 85.0524C38.2792 86.0755 35.8012 86.8086 33.5042 87.2515C31.2308 87.6536 29.9693 87.6465 29.7197 87.2302L12.6492 57.3296ZM71.3207 75.7727C69.6114 77.5076 67.163 78.802 63.9755 79.6561C60.7879 80.5102 57.8104 80.152 55.043 78.5814C52.2669 76.9786 50.3655 74.2615 49.3389 70.43C48.3036 66.5663 48.5175 63.1788 49.9805 60.2676C51.4758 57.3478 53.8332 55.4565 57.053 54.5938C60.2728 53.7311 62.972 53.8878 65.1506 55.064C67.3615 56.2316 68.7818 57.9906 69.4116 60.341C70.8092 65.557 68.5137 68.9673 62.5249 70.572L59.1925 71.4649C59.4513 72.4309 59.89 73.038 60.5087 73.2863C61.151 73.4938 61.9873 73.4596 63.0176 73.1835C65.2714 72.5796 67.2745 71.4907 69.0269 69.9169C69.0505 69.876 69.2558 70.0626 69.6427 70.4765C70.7865 71.654 71.4877 72.7257 71.7465 73.6916C71.9967 74.6253 71.8548 75.319 71.3207 75.7727ZM61.5437 63.4327C61.1813 62.0804 60.3401 61.5811 59.02 61.9349C58.4083 62.0988 57.9288 62.4343 57.5815 62.9415C57.2579 63.4078 57.1909 63.9951 57.3807 64.7035L57.7819 66.2007L60.3899 65.5018C61.4524 65.2171 61.837 64.5274 61.5437 63.4327ZM86.9182 72.6804C86.9786 72.9058 85.8497 73.3291 83.5315 73.9502C80.2858 74.7164 78.6285 74.9707 78.5595 74.7131L74.3666 59.0651L73.1109 59.4015C72.2738 59.6259 71.5366 59.0642 70.8994 57.7165C70.7229 57.3152 70.5785 56.9052 70.4664 56.4867C70.1989 55.4886 70.1247 54.4387 70.2436 53.337C70.4435 51.765 71.1553 50.8151 72.3788 50.4873C73.6023 50.1594 74.7746 50.1559 75.8959 50.4766C77.0171 50.7974 77.8163 51.2044 78.2936 51.6977C79.8562 49.4155 82.038 47.8991 84.8392 47.1485C87.6404 46.3979 89.8716 46.6111 91.5328 47.7879C93.194 48.9647 94.4861 51.2757 95.4092 54.7208L99.2915 69.2097C99.3951 69.5961 98.0623 70.1602 95.2933 70.9022C92.5565 71.6355 91.1364 71.809 91.0329 71.4226L87.2929 57.465C86.8616 55.8551 86.0824 55.2011 84.9555 55.5031C84.6335 55.5894 84.2216 55.855 83.7197 56.3001C83.2091 56.713 82.8906 57.0054 82.7642 57.1773L86.9182 72.6804ZM106.741 31.7555C106.611 31.2726 107.818 30.6903 110.362 30.0088C111.231 29.7758 112.247 29.5728 113.408 29.3996C114.593 29.1856 115.211 29.1752 115.263 29.3684L122.083 54.8205L123.773 54.3676C124.578 54.1519 125.304 54.734 125.949 56.1139C126.126 56.5152 126.314 57.0861 126.512 57.8267C126.702 58.535 126.709 59.4647 126.535 60.6158C126.27 62.2051 125.43 63.1895 124.013 63.5691C122.951 63.8538 121.945 63.899 120.995 63.7048C120.078 63.5019 119.414 63.2139 119.004 62.8408L118.401 62.3294C117.087 64.5103 115.094 65.9589 112.422 66.6749C109.75 67.391 107.166 66.8927 104.671 65.1801C102.176 63.4675 100.398 60.631 99.3368 56.6707C98.267 52.6782 98.4412 49.3359 99.8594 46.6438C101.269 43.9195 103.471 42.1561 106.465 41.3538C107.335 41.1209 108.246 40.9802 109.199 40.9318L106.741 31.7555ZM109.598 48.7965C107.795 49.2796 107.33 51.1472 108.201 54.3991C108.641 56.0412 109.218 57.1635 109.931 57.766C110.636 58.3363 111.295 58.5395 111.906 58.3756C112.55 58.203 113.089 57.7654 113.522 57.0628L111.322 48.8524C110.688 48.6771 110.114 48.6585 109.598 48.7965ZM139.571 58.5721C139.64 58.8296 138.194 59.3553 135.232 60.149C132.302 60.9341 130.806 61.2139 130.746 60.9885L124.392 37.2751C124.332 37.0497 125.766 36.5444 128.696 35.7594C131.659 34.9656 133.166 34.6654 133.217 34.8586L139.571 58.5721ZM132.454 32.0091C132.514 32.2345 131.063 32.744 128.101 33.5377C125.171 34.3228 123.68 34.6188 123.629 34.4256L121.765 27.4709C121.679 27.1489 123.101 26.5954 126.031 25.8103C128.993 25.0166 130.5 24.7163 130.551 24.9095L132.454 32.0091ZM154.033 54.697C154.093 54.9224 152.965 55.3457 150.646 55.9669C147.401 56.733 145.743 56.9873 145.674 56.7297L141.481 41.0817L140.226 41.4182C139.389 41.6425 138.651 41.0808 138.014 39.7331C137.838 39.3318 137.693 38.9219 137.581 38.5033C137.314 37.5052 137.24 36.4553 137.358 35.3536C137.558 33.7817 138.27 32.8317 139.494 32.5039C140.717 32.1761 141.89 32.1725 143.011 32.4933C144.132 32.814 144.931 33.221 145.408 33.7143C146.971 31.4321 149.153 29.9157 151.954 29.1651C154.755 28.4146 156.986 28.6277 158.648 29.8045C160.309 30.9813 161.601 33.2923 162.524 36.7374L166.406 51.2263C166.51 51.6127 165.177 52.1769 162.408 52.9188C159.671 53.6521 158.251 53.8256 158.148 53.4392L154.408 39.4816C153.976 37.8717 153.197 37.2178 152.07 37.5197C151.748 37.606 151.336 37.8717 150.835 38.3167C150.324 38.7296 150.005 39.022 149.879 39.1939L154.033 54.697ZM179.504 48.1827C176.381 49.0196 173.699 48.6685 171.457 47.1295C169.207 45.5583 167.556 42.8086 166.503 38.8805C165.442 34.9202 165.725 31.5316 167.351 28.7147C169.001 25.857 171.677 23.9321 175.38 22.9399C179.115 21.9391 182.41 21.9363 185.265 22.9313L191.709 46.9829C192.348 49.3655 191.869 51.4435 190.274 53.2168C188.687 55.0223 186.38 56.3306 183.354 57.1416C180.327 57.9525 177.519 58.2908 174.93 58.1565C174.401 57.4701 174.054 56.8209 173.89 56.2092C173.338 54.1485 173.271 52.5447 173.688 51.3976C176.095 51.7533 178.523 51.6033 180.97 50.9476C182.74 50.4731 183.458 49.608 183.121 48.3523L182.733 46.9034C181.417 47.532 180.341 47.9584 179.504 48.1827ZM177.248 30.8769C175.091 31.4549 174.448 33.3699 175.319 36.6219C175.863 38.6503 176.635 39.8583 177.636 40.2457C178.296 40.5176 178.899 40.5802 179.446 40.4336C179.994 40.2869 180.464 40.1092 180.856 39.9005L178.398 30.7242C177.985 30.7311 177.602 30.782 177.248 30.8769Z"/>
</mask>
<path d="M12.6492 57.3296C12.6061 57.1686 13.2595 56.8382 14.6095 56.3384C15.983 55.7979 17.1206 55.4068 18.0221 55.1652C21.596 54.2076 23.5886 54.1741 23.9998 55.0647L33.8473 75.2021L32.0653 52.9035C32.0083 51.918 33.8794 50.9163 37.6787 49.8983C38.6124 49.6481 39.8049 49.3976 41.2561 49.1467C42.7073 48.8959 43.4545 48.851 43.4976 49.012L43.5161 83.2747C43.5253 83.8244 42.6661 84.417 40.9384 85.0524C38.2792 86.0755 35.8012 86.8086 33.5042 87.2515C31.2308 87.6536 29.9693 87.6465 29.7197 87.2302L12.6492 57.3296ZM71.3207 75.7727C69.6114 77.5076 67.163 78.802 63.9755 79.6561C60.7879 80.5102 57.8104 80.152 55.043 78.5814C52.2669 76.9786 50.3655 74.2615 49.3389 70.43C48.3036 66.5663 48.5175 63.1788 49.9805 60.2676C51.4758 57.3478 53.8332 55.4565 57.053 54.5938C60.2728 53.7311 62.972 53.8878 65.1506 55.064C67.3615 56.2316 68.7818 57.9906 69.4116 60.341C70.8092 65.557 68.5137 68.9673 62.5249 70.572L59.1925 71.4649C59.4513 72.4309 59.89 73.038 60.5087 73.2863C61.151 73.4938 61.9873 73.4596 63.0176 73.1835C65.2714 72.5796 67.2745 71.4907 69.0269 69.9169C69.0505 69.876 69.2558 70.0626 69.6427 70.4765C70.7865 71.654 71.4877 72.7257 71.7465 73.6916C71.9967 74.6253 71.8548 75.319 71.3207 75.7727ZM61.5437 63.4327C61.1813 62.0804 60.3401 61.5811 59.02 61.9349C58.4083 62.0988 57.9288 62.4343 57.5815 62.9415C57.2579 63.4078 57.1909 63.9951 57.3807 64.7035L57.7819 66.2007L60.3899 65.5018C61.4524 65.2171 61.837 64.5274 61.5437 63.4327ZM86.9182 72.6804C86.9786 72.9058 85.8497 73.3291 83.5315 73.9502C80.2858 74.7164 78.6285 74.9707 78.5595 74.7131L74.3666 59.0651L73.1109 59.4015C72.2738 59.6259 71.5366 59.0642 70.8994 57.7165C70.7229 57.3152 70.5785 56.9052 70.4664 56.4867C70.1989 55.4886 70.1247 54.4387 70.2436 53.337C70.4435 51.765 71.1553 50.8151 72.3788 50.4873C73.6023 50.1594 74.7746 50.1559 75.8959 50.4766C77.0171 50.7974 77.8163 51.2044 78.2936 51.6977C79.8562 49.4155 82.038 47.8991 84.8392 47.1485C87.6404 46.3979 89.8716 46.6111 91.5328 47.7879C93.194 48.9647 94.4861 51.2757 95.4092 54.7208L99.2915 69.2097C99.3951 69.5961 98.0623 70.1602 95.2933 70.9022C92.5565 71.6355 91.1364 71.809 91.0329 71.4226L87.2929 57.465C86.8616 55.8551 86.0824 55.2011 84.9555 55.5031C84.6335 55.5894 84.2216 55.855 83.7197 56.3001C83.2091 56.713 82.8906 57.0054 82.7642 57.1773L86.9182 72.6804ZM106.741 31.7555C106.611 31.2726 107.818 30.6903 110.362 30.0088C111.231 29.7758 112.247 29.5728 113.408 29.3996C114.593 29.1856 115.211 29.1752 115.263 29.3684L122.083 54.8205L123.773 54.3676C124.578 54.1519 125.304 54.734 125.949 56.1139C126.126 56.5152 126.314 57.0861 126.512 57.8267C126.702 58.535 126.709 59.4647 126.535 60.6158C126.27 62.2051 125.43 63.1895 124.013 63.5691C122.951 63.8538 121.945 63.899 120.995 63.7048C120.078 63.5019 119.414 63.2139 119.004 62.8408L118.401 62.3294C117.087 64.5103 115.094 65.9589 112.422 66.6749C109.75 67.391 107.166 66.8927 104.671 65.1801C102.176 63.4675 100.398 60.631 99.3368 56.6707C98.267 52.6782 98.4412 49.3359 99.8594 46.6438C101.269 43.9195 103.471 42.1561 106.465 41.3538C107.335 41.1209 108.246 40.9802 109.199 40.9318L106.741 31.7555ZM109.598 48.7965C107.795 49.2796 107.33 51.1472 108.201 54.3991C108.641 56.0412 109.218 57.1635 109.931 57.766C110.636 58.3363 111.295 58.5395 111.906 58.3756C112.55 58.203 113.089 57.7654 113.522 57.0628L111.322 48.8524C110.688 48.6771 110.114 48.6585 109.598 48.7965ZM139.571 58.5721C139.64 58.8296 138.194 59.3553 135.232 60.149C132.302 60.9341 130.806 61.2139 130.746 60.9885L124.392 37.2751C124.332 37.0497 125.766 36.5444 128.696 35.7594C131.659 34.9656 133.166 34.6654 133.217 34.8586L139.571 58.5721ZM132.454 32.0091C132.514 32.2345 131.063 32.744 128.101 33.5377C125.171 34.3228 123.68 34.6188 123.629 34.4256L121.765 27.4709C121.679 27.1489 123.101 26.5954 126.031 25.8103C128.993 25.0166 130.5 24.7163 130.551 24.9095L132.454 32.0091ZM154.033 54.697C154.093 54.9224 152.965 55.3457 150.646 55.9669C147.401 56.733 145.743 56.9873 145.674 56.7297L141.481 41.0817L140.226 41.4182C139.389 41.6425 138.651 41.0808 138.014 39.7331C137.838 39.3318 137.693 38.9219 137.581 38.5033C137.314 37.5052 137.24 36.4553 137.358 35.3536C137.558 33.7817 138.27 32.8317 139.494 32.5039C140.717 32.1761 141.89 32.1725 143.011 32.4933C144.132 32.814 144.931 33.221 145.408 33.7143C146.971 31.4321 149.153 29.9157 151.954 29.1651C154.755 28.4146 156.986 28.6277 158.648 29.8045C160.309 30.9813 161.601 33.2923 162.524 36.7374L166.406 51.2263C166.51 51.6127 165.177 52.1769 162.408 52.9188C159.671 53.6521 158.251 53.8256 158.148 53.4392L154.408 39.4816C153.976 37.8717 153.197 37.2178 152.07 37.5197C151.748 37.606 151.336 37.8717 150.835 38.3167C150.324 38.7296 150.005 39.022 149.879 39.1939L154.033 54.697ZM179.504 48.1827C176.381 49.0196 173.699 48.6685 171.457 47.1295C169.207 45.5583 167.556 42.8086 166.503 38.8805C165.442 34.9202 165.725 31.5316 167.351 28.7147C169.001 25.857 171.677 23.9321 175.38 22.9399C179.115 21.9391 182.41 21.9363 185.265 22.9313L191.709 46.9829C192.348 49.3655 191.869 51.4435 190.274 53.2168C188.687 55.0223 186.38 56.3306 183.354 57.1416C180.327 57.9525 177.519 58.2908 174.93 58.1565C174.401 57.4701 174.054 56.8209 173.89 56.2092C173.338 54.1485 173.271 52.5447 173.688 51.3976C176.095 51.7533 178.523 51.6033 180.97 50.9476C182.74 50.4731 183.458 49.608 183.121 48.3523L182.733 46.9034C181.417 47.532 180.341 47.9584 179.504 48.1827ZM177.248 30.8769C175.091 31.4549 174.448 33.3699 175.319 36.6219C175.863 38.6503 176.635 39.8583 177.636 40.2457C178.296 40.5176 178.899 40.5802 179.446 40.4336C179.994 40.2869 180.464 40.1092 180.856 39.9005L178.398 30.7242C177.985 30.7311 177.602 30.782 177.248 30.8769Z" fill="#F3EDF3"/>
<path d="M12.6492 57.3296L9.75144 58.106L9.85175 58.4804L10.0439 58.817L12.6492 57.3296ZM14.6095 56.3384L15.651 59.1519L15.6797 59.1412L15.7082 59.13L14.6095 56.3384ZM23.9998 55.0647L21.2761 56.3222L21.2901 56.3525L21.3048 56.3826L23.9998 55.0647ZM33.8473 75.2021L31.1523 76.52L36.8377 74.9631L33.8473 75.2021ZM32.0653 52.9035L29.0703 53.0768L29.0722 53.1097L29.0748 53.1425L32.0653 52.9035ZM41.2561 49.1467L41.767 52.1029L41.767 52.1029L41.2561 49.1467ZM43.4976 49.012L46.4976 49.0104L46.4974 48.6163L46.3954 48.2356L43.4976 49.012ZM43.5161 83.2747L40.5161 83.2763L40.5161 83.3007L40.5165 83.3252L43.5161 83.2747ZM40.9384 85.0524L39.9027 82.2369L39.8819 82.2445L39.8611 82.2525L40.9384 85.0524ZM33.5042 87.2515L34.0267 90.2056L34.0495 90.2016L34.0722 90.1972L33.5042 87.2515ZM29.7197 87.2302L27.1144 88.7176L27.1303 88.7454L27.1468 88.7729L29.7197 87.2302ZM15.547 56.5531C15.8443 57.6626 15.4193 58.5264 15.1876 58.8861C14.956 59.2455 14.7061 59.4516 14.6289 59.5138C14.4569 59.6523 14.3529 59.6928 14.4606 59.6383C14.6305 59.5524 15.0017 59.3922 15.651 59.1519L13.568 53.525C12.8673 53.7844 12.2368 54.0393 11.7533 54.2838C11.5343 54.3945 11.1906 54.579 10.8661 54.8403C10.7126 54.9639 10.4081 55.2262 10.1438 55.6365C9.87932 56.0469 9.44337 56.9563 9.75144 58.106L15.547 56.5531ZM15.7082 59.13C17.0293 58.6101 18.0502 58.2635 18.7986 58.063L17.2457 52.2674C16.191 52.55 14.9368 52.9857 13.5108 53.5469L15.7082 59.13ZM18.7986 58.063C20.5138 57.6034 21.6228 57.4319 22.2474 57.4214C22.5648 57.4161 22.5619 57.458 22.3873 57.3957C22.1671 57.3172 21.6046 57.0337 21.2761 56.3222L26.7235 53.8071C26.1894 52.6503 25.2236 52.037 24.4024 51.7442C23.6269 51.4677 22.8254 51.4109 22.1465 51.4223C20.7786 51.4453 19.1044 51.7694 17.2457 52.2674L18.7986 58.063ZM21.3048 56.3826L31.1523 76.52L36.5423 73.8842L26.6948 53.7468L21.3048 56.3826ZM36.8377 74.9631L35.0557 52.6645L29.0748 53.1425L30.8568 75.4411L36.8377 74.9631ZM35.0603 52.7303C35.1076 53.5494 34.7144 54.0583 34.5997 54.184C34.5039 54.2889 34.5213 54.2295 34.8418 54.0579C35.4705 53.7213 36.6235 53.2868 38.4552 52.796L36.9023 47.0005C34.9346 47.5277 33.2524 48.1031 32.0099 48.7683C31.3948 49.0976 30.7177 49.537 30.1684 50.1387C29.6001 50.7612 28.9944 51.7649 29.0703 53.0768L35.0603 52.7303ZM38.4552 52.796C39.2687 52.578 40.3642 52.3454 41.767 52.1029L40.7452 46.1906C39.2456 46.4497 37.9562 46.7181 36.9023 47.0005L38.4552 52.796ZM41.767 52.1029C42.4663 51.9821 42.8829 51.9317 43.0849 51.9195C43.2112 51.912 43.1083 51.929 42.8973 51.898C42.8039 51.8843 42.487 51.8346 42.1074 51.6449C41.7333 51.4579 40.9042 50.9245 40.5998 49.7885L46.3954 48.2356C46.0802 47.0593 45.2183 46.492 44.7895 46.2777C44.3551 46.0606 43.9614 45.9899 43.7692 45.9617C43.3606 45.9017 42.9721 45.9155 42.7249 45.9304C42.1797 45.9631 41.4971 46.0606 40.7452 46.1906L41.767 52.1029ZM40.4976 49.0136L40.5161 83.2763L46.5161 83.2731L46.4976 49.0104L40.4976 49.0136ZM40.5165 83.3252C40.5048 82.6272 40.7816 82.135 40.9534 81.904C41.1114 81.6918 41.2341 81.6213 41.1754 81.6618C41.1312 81.6922 41.0123 81.7657 40.7848 81.8737C40.5626 81.9792 40.2721 82.101 39.9027 82.2369L41.974 87.868C42.9238 87.5187 43.8452 87.109 44.5818 86.601C45.1316 86.2219 46.5477 85.1323 46.5157 83.2242L40.5165 83.3252ZM39.8611 82.2525C37.3328 83.2253 35.0268 83.9026 32.9362 84.3057L34.0722 90.1972C36.5756 89.7145 39.2256 88.9258 42.0156 87.8524L39.8611 82.2525ZM32.9817 84.2973C31.9026 84.4882 31.2288 84.5498 30.8699 84.5478C30.6812 84.5467 30.7292 84.5274 30.906 84.5769C31.0033 84.6042 31.2069 84.6708 31.4503 84.8229C31.7022 84.9803 32.0318 85.2524 32.2927 85.6876L27.1468 88.7729C27.7859 89.8388 28.7928 90.2159 29.2873 90.3545C29.8419 90.5098 30.3942 90.5452 30.8362 90.5477C31.7388 90.5528 32.8324 90.4169 34.0267 90.2056L32.9817 84.2973ZM32.3251 85.7428L15.2545 55.8422L10.0439 58.817L27.1144 88.7176L32.3251 85.7428ZM71.3207 75.7727L69.3785 73.4863L69.277 73.5724L69.1836 73.6672L71.3207 75.7727ZM55.043 78.5814L53.543 81.1795L53.5526 81.185L53.5622 81.1905L55.043 78.5814ZM49.9805 60.2676L47.3103 58.9002L47.3051 58.9103L47.3 58.9205L49.9805 60.2676ZM65.1506 55.064L63.7254 57.7039L63.7375 57.7104L63.7497 57.7168L65.1506 55.064ZM59.1925 71.4649L58.416 68.5672L55.5182 69.3436L56.2947 72.2414L59.1925 71.4649ZM60.5087 73.2863L59.3912 76.0704L59.4876 76.1091L59.5864 76.141L60.5087 73.2863ZM69.0269 69.9169L71.0315 72.1488L71.3864 71.83L71.625 71.4169L69.0269 69.9169ZM69.6427 70.4765L67.4513 72.5253L67.4708 72.5463L67.4908 72.5668L69.6427 70.4765ZM57.5815 62.9415L60.0461 64.652L60.0515 64.6442L60.0569 64.6363L57.5815 62.9415ZM57.7819 66.2007L54.8841 66.9771L55.6606 69.8749L58.5584 69.0984L57.7819 66.2007ZM69.1836 73.6672C67.9595 74.9097 66.047 75.9952 63.199 76.7583L64.7519 82.5539C68.2791 81.6088 71.2634 80.1054 73.4577 77.8782L69.1836 73.6672ZM63.199 76.7583C60.7412 77.4169 58.5781 77.1382 56.5237 75.9723L53.5622 81.1905C57.0428 83.1658 60.8347 83.6035 64.7519 82.5539L63.199 76.7583ZM56.543 75.9833C54.6118 74.8684 53.1092 72.9099 52.2366 69.6535L46.4411 71.2064C47.6218 75.6131 49.9219 79.0889 53.543 81.1795L56.543 75.9833ZM52.2366 69.6535C51.3465 66.3314 51.5992 63.7276 52.661 61.6148L47.3 58.9205C45.4357 62.6301 45.2607 66.8011 46.4411 71.2064L52.2366 69.6535ZM52.6507 61.6351C53.7524 59.4839 55.4138 58.1389 57.8295 57.4916L56.2765 51.696C52.2527 52.7742 49.1991 55.2117 47.3103 58.9002L52.6507 61.6351ZM57.8295 57.4916C60.5709 56.757 62.4263 57.0025 63.7254 57.7039L66.5758 52.4242C63.5176 50.7731 59.9747 50.7051 56.2765 51.696L57.8295 57.4916ZM63.7497 57.7168C65.2452 58.5066 66.1068 59.5983 66.5138 61.1175L72.3094 59.5645C71.4568 56.3829 69.4777 53.9566 66.5516 52.4112L63.7497 57.7168ZM66.5138 61.1175C67.0629 63.1666 66.7719 64.3593 66.2494 65.1356C65.6683 65.999 64.3869 66.9673 61.7485 67.6742L63.3014 73.4698C66.6517 72.5721 69.5125 71.0329 71.2269 68.486C72.9999 65.8519 73.1579 62.7314 72.3094 59.5645L66.5138 61.1175ZM61.7485 67.6742L58.416 68.5672L59.9689 74.3627L63.3014 73.4698L61.7485 67.6742ZM56.2947 72.2414C56.6712 73.6467 57.5245 75.3211 59.3912 76.0704L61.6262 70.5022C61.7547 70.5538 61.8697 70.6231 61.9653 70.7005C62.059 70.7763 62.1171 70.8459 62.1472 70.8876C62.1999 70.9606 62.155 70.93 62.0903 70.6885L56.2947 72.2414ZM59.5864 76.141C61.0124 76.6018 62.5022 76.4274 63.7941 76.0813L62.2411 70.2857C61.8844 70.3813 61.6415 70.4128 61.4948 70.4188C61.3489 70.4248 61.3449 70.4038 61.4311 70.4316L59.5864 76.141ZM63.7941 76.0813C66.5084 75.354 68.9313 74.0351 71.0315 72.1488L67.0223 67.6849C65.6178 68.9463 64.0344 69.8052 62.2411 70.2857L63.7941 76.0813ZM71.625 71.4169C71.2213 72.116 70.5613 72.6083 69.8099 72.8096C69.1638 72.9828 68.6289 72.8956 68.3657 72.8345C67.8647 72.7181 67.5271 72.4975 67.4672 72.4593C67.349 72.3841 67.2684 72.3196 67.2398 72.2964C67.2044 72.2677 67.1835 72.2486 67.1809 72.2463C67.1768 72.2426 67.1975 72.2615 67.2507 72.3153C67.3008 72.3662 67.367 72.4352 67.4513 72.5253L71.8342 68.4278C71.6298 68.2091 71.4133 67.9852 71.2162 67.806C71.1406 67.7373 70.945 67.5607 70.6901 67.3984C70.6016 67.3421 70.2411 67.1103 69.7228 66.99C69.451 66.9268 68.9089 66.8394 68.257 67.0141C67.4998 67.217 66.8354 67.7126 66.4288 68.4168L71.625 71.4169ZM67.4908 72.5668C68.4815 73.5867 68.7817 74.2177 68.8488 74.468L74.6443 72.9151C74.1938 71.2336 73.0914 69.7212 71.7947 68.3863L67.4908 72.5668ZM68.8488 74.468C68.8951 74.6408 68.8385 74.5555 68.8886 74.3107C68.9153 74.1802 68.9689 74.0242 69.063 73.8645C69.1573 73.7045 69.2702 73.5783 69.3785 73.4863L73.2629 78.0592C75.014 76.5717 75.0618 74.4732 74.6443 72.9151L68.8488 74.468ZM64.4415 62.6563C64.1452 61.5507 63.5101 60.2583 62.1722 59.4642C60.8183 58.6606 59.3682 58.7357 58.2436 59.0371L59.7965 64.8326C59.9919 64.7803 59.6226 64.9282 59.1098 64.6238C58.6132 64.3291 58.5798 63.9624 58.6459 64.2092L64.4415 62.6563ZM58.2436 59.0371C56.9631 59.3802 55.8712 60.1292 55.1062 61.2466L60.0569 64.6363C60.0371 64.6653 59.9921 64.718 59.9216 64.7674C59.8891 64.7902 59.8589 64.8066 59.8345 64.8178C59.8104 64.8288 59.7965 64.8326 59.7965 64.8326L58.2436 59.0371ZM55.117 61.2309C54.1514 62.6221 54.1363 64.1863 54.483 65.4799L60.2785 63.927C60.2584 63.8519 60.2873 63.9131 60.2693 64.0714C60.249 64.2492 60.1788 64.4608 60.0461 64.652L55.117 61.2309ZM54.483 65.4799L54.8841 66.9771L60.6797 65.4242L60.2785 63.927L54.483 65.4799ZM58.5584 69.0984L61.1664 68.3996L59.6135 62.6041L57.0055 63.3029L58.5584 69.0984ZM61.1664 68.3996C62.1666 68.1316 63.3735 67.5267 64.0954 66.2321C64.806 64.9577 64.7021 63.629 64.4415 62.6563L58.6459 64.2092C58.6786 64.3312 58.5291 63.8946 58.8551 63.31C59.1924 62.7051 59.6757 62.5874 59.6135 62.6041L61.1664 68.3996ZM83.5315 73.9502L84.2207 76.87L84.2645 76.8597L84.3079 76.848L83.5315 73.9502ZM74.3666 59.0651L77.2644 58.2886L76.4879 55.3908L73.5901 56.1673L74.3666 59.0651ZM70.8994 57.7165L68.1534 58.9246L68.1698 58.9619L68.1873 58.9988L70.8994 57.7165ZM70.2436 53.337L67.2676 52.9585L67.264 52.9867L67.2609 53.015L70.2436 53.337ZM75.8959 50.4766L75.0708 53.3609L75.0708 53.3609L75.8959 50.4766ZM78.2936 51.6977L76.1376 53.7837L78.6929 56.4247L80.769 53.3925L78.2936 51.6977ZM83.7197 56.3001L85.6061 58.6328L85.6591 58.5899L85.7101 58.5447L83.7197 56.3001ZM82.7642 57.1773L80.3476 55.3996L79.4932 56.561L79.8664 57.9538L82.7642 57.1773ZM84.0204 73.4569C83.6517 72.0808 84.3681 71.0993 84.6128 70.8154C84.8847 70.5001 85.1462 70.3449 85.1837 70.3221C85.2959 70.254 85.3002 70.2692 85.0636 70.3579C84.6401 70.5166 83.8929 70.7476 82.755 71.0525L84.3079 76.848C85.4882 76.5318 86.4645 76.2405 87.17 75.976C87.4979 75.853 87.918 75.6813 88.2973 75.451C88.4684 75.3471 88.8263 75.1171 89.1574 74.733C89.4613 74.3804 90.1998 73.3364 89.816 71.904L84.0204 73.4569ZM82.8422 71.0305C81.2371 71.4094 80.1058 71.6419 79.3993 71.7503C79.0236 71.8079 78.893 71.8103 78.9148 71.8103C78.9311 71.8103 78.9831 71.8108 79.0606 71.8185C79.1314 71.8255 79.2768 71.8434 79.4636 71.8954C79.6326 71.9423 79.977 72.0553 80.3497 72.3249C80.7544 72.6178 81.2438 73.1401 81.4572 73.9366L75.6617 75.4895C76.1115 77.1683 77.6023 77.6054 77.856 77.676C78.3016 77.7999 78.7013 77.8099 78.9033 77.8103C79.3567 77.8112 79.8562 77.7504 80.3092 77.6809C81.26 77.535 82.5802 77.2572 84.2207 76.87L82.8422 71.0305ZM81.4572 73.9366L77.2644 58.2886L71.4688 59.8415L75.6617 75.4895L81.4572 73.9366ZM73.5901 56.1673L72.3344 56.5038L73.8874 62.2993L75.1431 61.9629L73.5901 56.1673ZM72.3344 56.5038C72.5481 56.4465 72.8275 56.4241 73.1304 56.489C73.4264 56.5524 73.6343 56.6754 73.7484 56.7623C73.8533 56.8422 73.8738 56.8869 73.8309 56.8273C73.7894 56.7697 73.7125 56.6477 73.6116 56.4342L68.1873 58.9988C68.5997 59.871 69.1971 60.8377 70.112 61.5348C71.1603 62.3335 72.5017 62.6706 73.8874 62.2993L72.3344 56.5038ZM73.6454 56.5084C73.5297 56.2453 73.4363 55.9795 73.3641 55.7102L67.5686 57.2631C67.7207 57.8309 67.9161 58.3851 68.1534 58.9246L73.6454 56.5084ZM73.3641 55.7102C73.1993 55.095 73.1442 54.4192 73.2263 53.659L67.2609 53.015C67.1051 54.4581 67.1985 55.8821 67.5686 57.2631L73.3641 55.7102ZM73.2196 53.7156C73.2752 53.2782 73.371 53.1873 73.3282 53.2445C73.3042 53.2765 73.263 53.3184 73.2101 53.3533C73.1592 53.3869 73.1321 53.3912 73.1552 53.3851L71.6023 47.5895C70.3879 47.9149 69.3135 48.5964 68.5265 49.6467C67.772 50.6538 67.4119 51.8238 67.2676 52.9585L73.2196 53.7156ZM73.1552 53.3851C73.9003 53.1854 74.517 53.2025 75.0708 53.3609L76.7209 47.5923C75.0323 47.1093 73.3042 47.1335 71.6023 47.5895L73.1552 53.3851ZM75.0708 53.3609C75.4981 53.4832 75.7889 53.6011 75.9748 53.6958C76.1645 53.7923 76.188 53.8358 76.1376 53.7837L80.4496 49.6116C79.433 48.5608 78.0371 47.9688 76.7209 47.5923L75.0708 53.3609ZM80.769 53.3925C81.9061 51.7317 83.4697 50.6213 85.6157 50.0463L84.0628 44.2507C80.6063 45.1769 77.8062 47.0993 75.8182 50.0028L80.769 53.3925ZM85.6157 50.0463C87.9351 49.4248 89.1354 49.766 89.7986 50.2359L93.267 45.3399C90.6078 43.4561 87.3457 43.3711 84.0628 44.2507L85.6157 50.0463ZM89.7986 50.2359C90.5948 50.7999 91.6467 52.2699 92.5115 55.4973L98.307 53.9444C97.3255 50.2814 95.7932 47.1295 93.267 45.3399L89.7986 50.2359ZM92.5115 55.4973L96.3937 69.9862L102.189 68.4332L98.307 53.9444L92.5115 55.4973ZM96.3937 69.9862C96.1476 69.0676 96.4127 68.2877 96.6828 67.8325C96.9202 67.4322 97.1893 67.2179 97.2647 67.1596C97.4211 67.0387 97.4624 67.0489 97.2002 67.1599C96.732 67.3581 95.8704 67.6417 94.5169 68.0044L96.0698 73.8C97.4852 73.4207 98.6745 73.0512 99.5391 72.6853C99.9432 72.5142 100.471 72.2646 100.935 71.906C101.164 71.7289 101.542 71.4013 101.843 70.8934C102.177 70.3304 102.461 69.4484 102.189 68.4332L96.3937 69.9862ZM94.5169 68.0044C93.1798 68.3627 92.3059 68.5441 91.8119 68.6044C91.5345 68.6383 91.5712 68.6081 91.7725 68.6363C91.8705 68.65 92.2122 68.7033 92.618 68.9343C93.0799 69.1974 93.6878 69.7398 93.9306 70.6462L88.1351 72.1991C88.4038 73.202 89.0787 73.8235 89.6488 74.1482C90.1627 74.4408 90.6538 74.5383 90.9422 74.5786C91.5245 74.6599 92.1067 74.613 92.5394 74.5601C93.4655 74.447 94.67 74.175 96.0698 73.8L94.5169 68.0044ZM93.9306 70.6462L90.1907 56.6885L84.3951 58.2414L88.1351 72.1991L93.9306 70.6462ZM90.1907 56.6885C89.9082 55.6344 89.3896 54.3722 88.3137 53.4692C87.0555 52.4132 85.5277 52.244 84.179 52.6053L85.732 58.4009C85.6692 58.4177 85.4716 58.4579 85.1907 58.406C84.8934 58.3511 84.6383 58.2177 84.4564 58.065C84.2923 57.9273 84.2424 57.8209 84.2586 57.8514C84.2752 57.8824 84.3301 57.9987 84.3951 58.2414L90.1907 56.6885ZM84.179 52.6053C83.1459 52.8822 82.2956 53.5533 81.7293 54.0555L85.7101 58.5447C85.7947 58.4697 85.8649 58.4117 85.921 58.368C85.9776 58.324 86.014 58.2992 86.031 58.2882C86.0489 58.2767 86.036 58.2865 85.9943 58.3065C85.954 58.3258 85.8647 58.3653 85.732 58.4009L84.179 52.6053ZM81.8332 53.9674C81.3808 54.3333 80.7431 54.862 80.3476 55.3996L85.1807 58.955C85.1405 59.0097 85.1083 59.0481 85.0911 59.068C85.0731 59.0889 85.062 59.1004 85.061 59.1015C85.0603 59.1023 85.0793 59.0825 85.1267 59.039C85.2227 58.9509 85.3774 58.8177 85.6061 58.6328L81.8332 53.9674ZM79.8664 57.9538L84.0204 73.4569L89.816 71.904L85.6619 56.4009L79.8664 57.9538ZM113.408 29.3996L113.85 32.3668L113.896 32.36L113.941 32.3518L113.408 29.3996ZM122.083 54.8205L119.185 55.597L119.962 58.4948L122.859 57.7183L122.083 54.8205ZM125.949 56.1139L128.696 54.9058L128.681 54.8739L128.667 54.8422L125.949 56.1139ZM126.535 60.6158L129.494 61.1081L129.497 61.0871L129.501 61.066L126.535 60.6158ZM120.995 63.7048L120.347 66.6339L120.371 66.6391L120.394 66.6439L120.995 63.7048ZM119.004 62.8408L121.022 60.6206L120.984 60.5861L120.944 60.5529L119.004 62.8408ZM118.401 62.3294L120.342 60.0415L117.651 57.7596L115.831 60.7815L118.401 62.3294ZM104.671 65.1801L102.973 67.6535L102.973 67.6535L104.671 65.1801ZM99.8594 46.6438L102.514 48.042L102.519 48.0323L102.524 48.0224L99.8594 46.6438ZM109.199 40.9318L109.351 43.928L113.058 43.7399L112.097 40.1554L109.199 40.9318ZM109.931 57.766L107.996 60.0582L108.02 60.0785L108.044 60.0983L109.931 57.766ZM113.522 57.0628L116.076 58.6364L116.754 57.5354L116.419 56.2863L113.522 57.0628ZM111.322 48.8524L114.219 48.076L113.775 46.4186L112.122 45.961L111.322 48.8524ZM109.638 30.9791C109.807 31.6075 109.73 32.2121 109.537 32.6915C109.363 33.1237 109.122 33.3904 109.003 33.5083C108.788 33.7212 108.656 33.7532 108.852 33.6587C109.194 33.4939 109.91 33.2357 111.138 32.9065L109.585 27.111C108.27 27.4633 107.111 27.8371 106.245 28.2545C105.838 28.4512 105.27 28.7619 104.785 29.2411C104.312 29.7083 103.404 30.8955 103.843 32.532L109.638 30.9791ZM111.138 32.9065C111.87 32.7103 112.77 32.5279 113.85 32.3668L112.966 26.4324C111.723 26.6176 110.592 26.8413 109.585 27.111L111.138 32.9065ZM113.941 32.3518C114.2 32.3052 114.404 32.2738 114.561 32.2543C114.638 32.2447 114.699 32.2386 114.743 32.235C114.765 32.2333 114.782 32.2322 114.794 32.2316C114.806 32.231 114.811 32.2309 114.811 32.2309C114.811 32.2309 114.803 32.231 114.787 32.2306C114.772 32.2302 114.747 32.2291 114.712 32.2262C114.653 32.2212 114.514 32.2064 114.329 32.1559C114.16 32.1099 113.814 31.9973 113.439 31.722C113.029 31.4201 112.569 30.9036 112.365 30.1448L118.161 28.5919C117.714 26.9233 116.25 26.4608 115.907 26.3674C115.416 26.2334 114.964 26.2275 114.71 26.2317C114.151 26.2411 113.507 26.3331 112.875 26.4474L113.941 32.3518ZM112.365 30.1448L119.185 55.597L124.981 54.0441L118.161 28.5919L112.365 30.1448ZM122.859 57.7183L124.55 57.2654L122.997 51.4698L121.307 51.9228L122.859 57.7183ZM124.55 57.2654C124.298 57.3328 123.987 57.3503 123.664 57.273C123.353 57.1985 123.145 57.0639 123.043 56.9822C122.949 56.9067 122.939 56.8723 122.991 56.9471C123.041 57.019 123.125 57.1567 123.232 57.3856L128.667 54.8422C128.259 53.9708 127.677 53.0077 126.799 52.3026C125.791 51.4936 124.439 51.0833 122.997 51.4698L124.55 57.2654ZM123.203 57.3219C123.289 57.5174 123.431 57.9184 123.614 58.6031L129.41 57.0502C129.196 56.2538 128.963 55.513 128.696 54.9058L123.203 57.3219ZM123.614 58.6031C123.652 58.7457 123.714 59.2103 123.569 60.1657L129.501 61.066C129.705 59.7192 129.751 58.3244 129.41 57.0502L123.614 58.6031ZM123.575 60.1236C123.543 60.318 123.502 60.4409 123.472 60.5109C123.457 60.5456 123.444 60.5677 123.437 60.5802C123.429 60.5925 123.425 60.5976 123.424 60.5981C123.424 60.5985 123.425 60.5977 123.426 60.5969C123.427 60.5961 123.424 60.5985 123.416 60.6034C123.401 60.6126 123.348 60.6414 123.237 60.6713L124.79 66.4669C126.003 66.1417 127.122 65.5076 127.987 64.4941C128.839 63.4969 129.294 62.3099 129.494 61.1081L123.575 60.1236ZM123.237 60.6713C122.563 60.8519 122.032 60.8546 121.597 60.7657L120.394 66.6439C121.858 66.9434 123.338 66.8557 124.79 66.4669L123.237 60.6713ZM121.643 60.7756C121.32 60.7041 121.117 60.6335 121.004 60.5845C120.887 60.5338 120.922 60.5302 121.022 60.6206L116.986 65.0609C117.966 65.9514 119.231 66.387 120.347 66.6339L121.643 60.7756ZM120.944 60.5529L120.342 60.0415L116.46 64.6172L117.063 65.1286L120.944 60.5529ZM115.831 60.7815C114.955 62.2368 113.639 63.243 111.645 63.7772L113.198 69.5727C116.55 68.6748 119.22 66.7839 120.971 63.8772L115.831 60.7815ZM111.645 63.7772C109.906 64.2432 108.217 63.9756 106.369 62.7068L102.973 67.6535C106.115 69.8098 109.593 70.5388 113.198 69.5727L111.645 63.7772ZM106.369 62.7068C104.644 61.5227 103.177 59.4101 102.235 55.8943L96.439 57.4472C97.6193 61.852 99.7082 65.4123 102.973 67.6535L106.369 62.7068ZM102.235 55.8943C101.289 52.3662 101.557 49.8571 102.514 48.042L97.2052 45.2455C95.325 48.8147 95.2448 52.9903 96.439 57.4472L102.235 55.8943ZM102.524 48.0224C103.541 46.0565 105.053 44.8382 107.242 44.2516L105.689 38.456C101.889 39.4741 98.997 41.7825 97.195 45.2652L102.524 48.0224ZM107.242 44.2516C107.895 44.0765 108.596 43.9663 109.351 43.928L109.047 37.9357C107.896 37.9941 106.774 38.1652 105.689 38.456L107.242 44.2516ZM112.097 40.1554L109.638 30.9791L103.843 32.532L106.302 41.7083L112.097 40.1554ZM108.822 45.8987C107.922 46.14 107.052 46.5959 106.338 47.335C105.629 48.0701 105.207 48.9476 104.986 49.8334C104.569 51.5046 104.821 53.3768 105.303 55.1756L111.099 53.6227C110.914 52.9353 110.821 52.3944 110.789 51.9829C110.756 51.565 110.791 51.3527 110.808 51.2856C110.82 51.2377 110.798 51.3545 110.655 51.5019C110.509 51.6533 110.374 51.6946 110.375 51.6943L108.822 45.8987ZM105.303 55.1756C105.789 56.9881 106.566 58.8505 107.996 60.0582L111.867 55.4738C111.899 55.5008 111.799 55.4263 111.632 55.1011C111.468 54.7819 111.281 54.3038 111.099 53.6227L105.303 55.1756ZM108.044 60.0983C109.154 60.9956 110.788 61.781 112.683 61.2734L111.13 55.4778C111.261 55.4426 111.398 55.427 111.532 55.4311C111.663 55.4352 111.768 55.4577 111.839 55.4796C111.97 55.52 111.963 55.5505 111.818 55.4337L108.044 60.0983ZM112.683 61.2734C114.233 60.858 115.342 59.8282 116.076 58.6364L110.967 55.4892C110.895 55.6066 110.864 55.6196 110.901 55.5899C110.92 55.5748 110.951 55.5528 110.994 55.5305C111.037 55.5081 111.084 55.4901 111.13 55.4778L112.683 61.2734ZM116.419 56.2863L114.219 48.076L108.424 49.6289L110.624 57.8392L116.419 56.2863ZM112.122 45.961C111.092 45.6761 109.961 45.5934 108.822 45.8987L110.375 51.6943C110.327 51.7072 110.303 51.7049 110.318 51.7054C110.337 51.706 110.402 51.7106 110.522 51.7438L112.122 45.961ZM136.674 59.3485C136.264 57.8213 137.177 56.7969 137.356 56.6096C137.617 56.3366 137.851 56.2106 137.856 56.2076C137.91 56.1771 137.835 56.223 137.514 56.3399C136.917 56.5566 135.917 56.8594 134.455 57.2512L136.008 63.0468C137.508 62.6448 138.713 62.288 139.563 61.9791C139.964 61.8331 140.424 61.6497 140.822 61.4234C140.999 61.3225 141.358 61.107 141.696 60.7528C141.952 60.4844 142.896 59.3872 142.469 57.7956L136.674 59.3485ZM134.455 57.2512C133.007 57.6393 131.991 57.8809 131.361 57.9989C131.023 58.0621 130.918 58.066 130.955 58.0647C130.975 58.064 131.031 58.0626 131.111 58.0674C131.184 58.0718 131.334 58.0844 131.526 58.1298C131.698 58.1704 132.06 58.2727 132.455 58.5403C132.889 58.8337 133.419 59.3728 133.644 60.2121L127.848 61.765C128.321 63.5298 129.929 63.9176 130.146 63.9689C130.588 64.0735 130.979 64.0675 131.165 64.061C131.591 64.0461 132.054 63.9733 132.465 63.8965C133.33 63.7346 134.526 63.4438 136.008 63.0468L134.455 57.2512ZM133.644 60.2121L127.29 36.4986L121.494 38.0515L127.848 61.765L133.644 60.2121ZM127.29 36.4986C127.515 37.3379 127.325 38.0696 127.097 38.5406C126.888 38.9701 126.625 39.2397 126.497 39.3607C126.353 39.4962 126.23 39.5819 126.169 39.6223C126.102 39.6667 126.053 39.6931 126.035 39.7025C126.002 39.72 126.095 39.6708 126.419 39.5568C127.024 39.3438 128.025 39.0452 129.473 38.6571L127.92 32.8616C126.438 33.2586 125.256 33.6052 124.426 33.8974C124.033 34.036 123.595 34.2045 123.219 34.4046C123.054 34.4922 122.713 34.6822 122.382 34.9941C122.22 35.1472 121.021 36.2868 121.494 38.0515L127.29 36.4986ZM129.473 38.6571C130.94 38.2641 131.98 38.0114 132.635 37.881C132.981 37.812 133.114 37.7989 133.111 37.7992C133.101 37.7998 133.059 37.8026 132.994 37.8017C132.936 37.8009 132.805 37.7968 132.633 37.7678C132.489 37.7437 132.129 37.6732 131.719 37.4425C131.278 37.1944 130.589 36.64 130.32 35.635L136.115 34.0821C135.839 33.053 135.132 32.4783 134.662 32.2137C134.223 31.9666 133.822 31.8836 133.627 31.8507C133.224 31.783 132.869 31.8016 132.7 31.8133C132.307 31.8402 131.869 31.9156 131.462 31.9967C130.609 32.1666 129.415 32.4609 127.92 32.8616L129.473 38.6571ZM130.32 35.635L136.674 59.3485L142.469 57.7956L136.115 34.0821L130.32 35.635ZM129.556 32.7855C129.328 31.9362 129.525 31.1985 129.756 30.729C129.967 30.3009 130.231 30.0331 130.358 29.9143C130.501 29.7807 130.623 29.6963 130.684 29.6569C130.75 29.6135 130.797 29.5879 130.814 29.5791C130.843 29.5638 130.745 29.6145 130.417 29.7298C129.803 29.9454 128.789 30.2475 127.325 30.64L128.878 36.4355C130.375 36.0342 131.568 35.6847 132.405 35.3908C132.802 35.2513 133.241 35.0828 133.618 34.8837C133.782 34.7967 134.123 34.6083 134.453 34.2996C134.606 34.1568 135.829 33.0134 135.352 31.2326L129.556 32.7855ZM127.325 30.64C125.874 31.0287 124.846 31.2779 124.201 31.4059C123.859 31.4739 123.731 31.4859 123.738 31.4854C123.749 31.4847 123.792 31.482 123.859 31.4831C123.918 31.484 124.05 31.4886 124.225 31.5187C124.37 31.5437 124.731 31.6163 125.141 31.8497C125.582 32.1015 126.26 32.6557 126.526 33.6491L120.731 35.202C121.003 36.2196 121.699 36.7941 122.169 37.0624C122.608 37.3124 123.009 37.3976 123.206 37.4315C123.611 37.5014 123.967 37.4834 124.137 37.4721C124.529 37.446 124.966 37.3711 125.37 37.2911C126.215 37.1232 127.398 36.8319 128.878 36.4355L127.325 30.64ZM126.526 33.6491L124.663 26.6945L118.867 28.2474L120.731 35.202L126.526 33.6491ZM124.663 26.6945C124.985 27.8977 124.457 28.8086 124.186 29.1628C123.925 29.5039 123.664 29.6711 123.628 29.695C123.527 29.7613 123.552 29.7277 123.855 29.6099C124.408 29.3948 125.366 29.0942 126.807 28.7081L125.254 22.9125C123.765 23.3115 122.548 23.6802 121.678 24.0187C121.27 24.1776 120.773 24.3919 120.338 24.677C120.135 24.8103 119.755 25.0798 119.421 25.5159C119.077 25.965 118.523 26.9637 118.867 28.2474L124.663 26.6945ZM126.807 28.7081C128.274 28.315 129.314 28.0624 129.969 27.932C130.315 27.8629 130.448 27.8499 130.445 27.8501C130.435 27.8508 130.393 27.8535 130.328 27.8526C130.27 27.8518 130.139 27.8478 129.967 27.8188C129.823 27.7946 129.463 27.7242 129.053 27.4935C128.613 27.2454 127.923 26.691 127.654 25.686L133.449 24.1331C133.174 23.1039 132.466 22.5292 131.996 22.2647C131.557 22.0175 131.156 21.9345 130.961 21.9017C130.558 21.8339 130.203 21.8526 130.034 21.8642C129.642 21.8912 129.203 21.9666 128.796 22.0477C127.943 22.2176 126.749 22.5119 125.254 22.9125L126.807 28.7081ZM127.654 25.686L129.556 32.7855L135.352 31.2326L133.449 24.1331L127.654 25.686ZM150.646 55.9669L151.336 58.8866L151.379 58.8763L151.423 58.8646L150.646 55.9669ZM141.481 41.0817L144.379 40.3052L143.603 37.4075L140.705 38.1839L141.481 41.0817ZM138.014 39.7331L135.268 40.9412L135.285 40.9785L135.302 41.0154L138.014 39.7331ZM137.358 35.3536L134.382 34.9751L134.379 35.0033L134.376 35.0317L137.358 35.3536ZM143.011 32.4933L142.186 35.3776L142.186 35.3776L143.011 32.4933ZM145.408 33.7143L143.252 35.8003L145.808 38.4414L147.884 35.4091L145.408 33.7143ZM150.835 38.3167L152.721 40.6494L152.774 40.6066L152.825 40.5613L150.835 38.3167ZM149.879 39.1939L147.462 37.4162L146.608 38.5777L146.981 39.9704L149.879 39.1939ZM151.135 55.4735C150.767 54.0975 151.483 53.1159 151.728 52.8321C152 52.5167 152.261 52.3615 152.299 52.3387C152.411 52.2706 152.415 52.2858 152.178 52.3745C151.755 52.5333 151.008 52.7642 149.87 53.0691L151.423 58.8646C152.603 58.5484 153.579 58.2571 154.285 57.9926C154.613 57.8697 155.033 57.6979 155.412 57.4676C155.583 57.3638 155.941 57.1337 156.272 56.7496C156.576 56.397 157.315 55.353 156.931 53.9206L151.135 55.4735ZM149.957 53.0471C148.352 53.426 147.221 53.6585 146.514 53.7669C146.138 53.8245 146.008 53.8269 146.03 53.8269C146.046 53.827 146.098 53.8275 146.175 53.8351C146.246 53.8421 146.392 53.8601 146.578 53.912C146.747 53.959 147.092 54.0719 147.465 54.3415C147.869 54.6344 148.359 55.1567 148.572 55.9532L142.777 57.5062C143.226 59.185 144.717 59.6221 144.971 59.6926C145.416 59.8165 145.816 59.8265 146.018 59.8269C146.472 59.8278 146.971 59.767 147.424 59.6975C148.375 59.5516 149.695 59.2739 151.336 58.8866L149.957 53.0471ZM148.572 55.9532L144.379 40.3052L138.584 41.8582L142.777 57.5062L148.572 55.9532ZM140.705 38.1839L139.449 38.5204L141.002 44.3159L142.258 43.9795L140.705 38.1839ZM139.449 38.5204C139.663 38.4631 139.942 38.4407 140.245 38.5056C140.541 38.5691 140.749 38.692 140.863 38.7789C140.968 38.8588 140.989 38.9035 140.946 38.8439C140.904 38.7863 140.827 38.6643 140.726 38.4508L135.302 41.0154C135.715 41.8876 136.312 42.8543 137.227 43.5514C138.275 44.3501 139.617 44.6872 141.002 44.3159L139.449 38.5204ZM140.76 38.5251C140.645 38.2619 140.551 37.9962 140.479 37.7268L134.683 39.2798C134.836 39.8476 135.031 40.4017 135.268 40.9412L140.76 38.5251ZM140.479 37.7268C140.314 37.1117 140.259 36.4359 140.341 35.6756L134.376 35.0317C134.22 36.4747 134.313 37.8987 134.683 39.2798L140.479 37.7268ZM140.334 35.7322C140.39 35.2949 140.486 35.204 140.443 35.2611C140.419 35.2931 140.378 35.335 140.325 35.37C140.274 35.4036 140.247 35.4079 140.27 35.4017L138.717 29.6061C137.503 29.9315 136.428 30.613 135.641 31.6634C134.887 32.6704 134.527 33.8404 134.382 34.9751L140.334 35.7322ZM140.27 35.4017C141.015 35.202 141.632 35.2192 142.186 35.3776L143.836 29.609C142.147 29.1259 140.419 29.1501 138.717 29.6061L140.27 35.4017ZM142.186 35.3776C142.613 35.4998 142.904 35.6177 143.09 35.7124C143.279 35.809 143.303 35.8524 143.252 35.8003L147.564 31.6283C146.548 30.5775 145.152 29.9854 143.836 29.609L142.186 35.3776ZM147.884 35.4091C149.021 33.7483 150.585 32.6379 152.731 32.0629L151.178 26.2674C147.721 27.1935 144.921 29.1159 142.933 32.0194L147.884 35.4091ZM152.731 32.0629C155.05 31.4414 156.25 31.7827 156.913 32.2525L160.382 27.3565C157.723 25.4727 154.461 25.3877 151.178 26.2674L152.731 32.0629ZM156.913 32.2525C157.71 32.8165 158.762 34.2866 159.626 37.5139L165.422 35.961C164.44 32.2981 162.908 29.1461 160.382 27.3565L156.913 32.2525ZM159.626 37.5139L163.509 52.0028L169.304 50.4499L165.422 35.961L159.626 37.5139ZM163.509 52.0028C163.262 51.0843 163.528 50.3044 163.798 49.8491C164.035 49.4489 164.304 49.2346 164.38 49.1762C164.536 49.0553 164.577 49.0655 164.315 49.1766C163.847 49.3747 162.985 49.6584 161.632 50.021L163.185 55.8166C164.6 55.4373 165.789 55.0679 166.654 54.7019C167.058 54.5308 167.586 54.2812 168.05 53.9227C168.279 53.7455 168.657 53.4179 168.958 52.91C169.292 52.347 169.576 51.465 169.304 50.4499L163.509 52.0028ZM161.632 50.021C160.295 50.3793 159.421 50.5607 158.927 50.621C158.649 50.6549 158.686 50.6248 158.887 50.6529C158.985 50.6666 159.327 50.7199 159.733 50.951C160.195 51.214 160.803 51.7564 161.045 52.6628L155.25 54.2157C155.519 55.2186 156.194 55.8401 156.764 56.1648C157.278 56.4575 157.769 56.5549 158.057 56.5952C158.639 56.6765 159.222 56.6296 159.654 56.5768C160.58 56.4636 161.785 56.1916 163.185 55.8166L161.632 50.021ZM161.045 52.6628L157.306 38.7051L151.51 40.2581L155.25 54.2157L161.045 52.6628ZM157.306 38.7051C157.023 37.651 156.504 36.3889 155.429 35.4859C154.17 34.4298 152.643 34.2606 151.294 34.6219L152.847 40.4175C152.784 40.4343 152.586 40.4745 152.306 40.4226C152.008 40.3677 151.753 40.2343 151.571 40.0816C151.407 39.9439 151.357 39.8376 151.374 39.868C151.39 39.899 151.445 40.0154 151.51 40.2581L157.306 38.7051ZM151.294 34.6219C150.261 34.8988 149.41 35.5699 148.844 36.0721L152.825 40.5613C152.91 40.4863 152.98 40.4283 153.036 40.3847C153.093 40.3406 153.129 40.3158 153.146 40.3048C153.164 40.2933 153.151 40.3031 153.109 40.3231C153.069 40.3425 152.98 40.3819 152.847 40.4175L151.294 34.6219ZM148.948 35.9841C148.496 36.3499 147.858 36.8786 147.462 37.4162L152.296 40.9717C152.255 41.0263 152.223 41.0647 152.206 41.0846C152.188 41.1055 152.177 41.117 152.176 41.1181C152.175 41.1189 152.194 41.0991 152.242 41.0557C152.338 40.9675 152.492 40.8344 152.721 40.6494L148.948 35.9841ZM146.981 39.9704L151.135 55.4735L156.931 53.9206L152.777 38.4175L146.981 39.9704ZM171.457 47.1295L169.74 49.5891L169.749 49.5959L169.759 49.6026L171.457 47.1295ZM167.351 28.7147L164.753 27.2147L164.753 27.2147L167.351 28.7147ZM185.265 22.9313L188.163 22.1548L187.752 20.6211L186.252 20.0984L185.265 22.9313ZM190.274 53.2168L188.044 51.2103L188.032 51.2233L188.02 51.2364L190.274 53.2168ZM174.93 58.1565L172.553 59.9878L173.396 61.081L174.774 61.1525L174.93 58.1565ZM173.688 51.3976L174.126 48.4298L171.705 48.0721L170.869 50.3719L173.688 51.3976ZM182.733 46.9034L185.631 46.127L184.696 42.6403L181.44 44.1965L182.733 46.9034ZM177.636 40.2457L178.78 37.4722L178.749 37.4597L178.719 37.4479L177.636 40.2457ZM180.856 39.9005L182.265 42.5494L184.372 41.4292L183.754 39.124L180.856 39.9005ZM178.398 30.7242L181.295 29.9477L180.689 27.6852L178.347 27.7246L178.398 30.7242ZM178.728 45.2849C176.275 45.9421 174.535 45.6039 173.155 44.6564L169.759 49.6026C172.862 51.733 176.487 52.097 180.28 51.0805L178.728 45.2849ZM173.175 44.6698C171.727 43.6587 170.356 41.6683 169.401 38.1041L163.606 39.657C164.756 43.949 166.688 47.4579 169.74 49.5891L173.175 44.6698ZM169.401 38.1041C168.489 34.7015 168.818 32.1741 169.949 30.2147L164.753 27.2147C162.632 30.8892 162.395 35.139 163.606 39.657L169.401 38.1041ZM169.949 30.2147C171.137 28.1578 173.088 26.6599 176.157 25.8377L174.604 20.0421C170.267 21.2042 166.865 23.5562 164.753 27.2147L169.949 30.2147ZM176.157 25.8377C179.472 24.9494 182.13 25.0158 184.277 25.7642L186.252 20.0984C182.689 18.8567 178.758 18.9289 174.604 20.0421L176.157 25.8377ZM182.367 23.7078L188.812 47.7593L194.607 46.2064L188.163 22.1548L182.367 23.7078ZM188.812 47.7593C189.198 49.2014 188.932 50.2224 188.044 51.2103L192.504 55.2233C194.806 52.6645 195.498 49.5295 194.607 46.2064L188.812 47.7593ZM188.02 51.2364C186.927 52.4801 185.203 53.5401 182.577 54.2438L184.13 60.0393C187.557 59.121 190.447 57.5645 192.527 55.1972L188.02 51.2364ZM182.577 54.2438C179.793 54.9898 177.303 55.2756 175.085 55.1605L174.774 61.1525C177.735 61.3061 180.861 60.9153 184.13 60.0393L182.577 54.2438ZM177.306 56.3253C176.935 55.8442 176.819 55.5489 176.788 55.4327L170.992 56.9856C171.289 58.093 171.866 59.0959 172.553 59.9878L177.306 56.3253ZM176.788 55.4327C176.29 53.5734 176.406 52.7008 176.507 52.4232L170.869 50.3719C170.135 52.3885 170.386 54.7237 170.992 56.9856L176.788 55.4327ZM173.249 54.3654C176.079 54.7834 178.92 54.6027 181.746 53.8454L180.193 48.0498C178.125 48.6039 176.112 48.7231 174.126 48.4298L173.249 54.3654ZM181.746 53.8454C182.886 53.54 184.21 52.9856 185.145 51.8576C186.228 50.5509 186.393 48.9738 186.019 47.5758L180.223 49.1288C180.217 49.1032 180.178 48.9403 180.223 48.6907C180.271 48.4242 180.39 48.1924 180.526 48.0282C180.647 47.8818 180.733 47.8472 180.678 47.877C180.622 47.9074 180.474 47.9746 180.193 48.0498L181.746 53.8454ZM186.019 47.5758L185.631 46.127L179.835 47.6799L180.223 49.1288L186.019 47.5758ZM181.44 44.1965C180.194 44.7915 179.307 45.1295 178.728 45.2849L180.28 51.0805C181.375 50.7873 182.641 50.2724 184.026 49.6103L181.44 44.1965ZM176.472 27.9791C174.543 28.496 172.983 29.7683 172.304 31.7918C171.707 33.5691 171.925 35.5437 172.421 37.3983L178.217 35.8454C178.04 35.1835 177.963 34.6755 177.947 34.3011C177.93 33.9254 177.976 33.7475 177.992 33.7015C178 33.6783 177.979 33.7392 177.909 33.8018C177.849 33.8553 177.851 33.8211 178.025 33.7747L176.472 27.9791ZM172.421 37.3983C172.994 39.5363 174.09 42.0902 176.553 43.0435L178.719 37.4479C178.985 37.5508 178.99 37.6782 178.834 37.4332C178.671 37.1785 178.443 36.6872 178.217 35.8454L172.421 37.3983ZM176.493 43.0192C177.601 43.4762 178.89 43.6884 180.223 43.3313L178.67 37.5358C178.719 37.5227 178.766 37.5153 178.807 37.5123C178.848 37.5093 178.877 37.511 178.893 37.5126C178.923 37.5157 178.888 37.5171 178.78 37.4722L176.493 43.0192ZM180.223 43.3313C180.933 43.1411 181.626 42.8891 182.265 42.5494L179.448 37.2515C179.302 37.3293 179.055 37.4327 178.67 37.5358L180.223 43.3313ZM183.754 39.124L181.295 29.9477L175.5 31.5006L177.959 40.6769L183.754 39.124ZM178.347 27.7246C177.72 27.7351 177.09 27.8134 176.472 27.9791L178.025 33.7747C178.114 33.7506 178.251 33.727 178.448 33.7237L178.347 27.7246Z" fill="#E85A5A" mask="url(#path-1-outside-1_217_2596)"/>
<g filter="url(#filter0_d_217_2596)">
<mask id="path-3-outside-2_217_2596" maskUnits="userSpaceOnUse" x="24.3933" y="37.4632" width="190.791" height="89.6752" fill="black">
<rect fill="white" x="24.3933" y="37.4632" width="190.791" height="89.6752"/>
<path d="M71.6883 113.358C68.8227 114.126 67.3037 114.188 67.1311 113.544L60.9276 94.4492L60.2895 115.636C60.2642 116.057 59.2213 116.544 57.1606 117.096C55.1 117.648 53.99 117.756 53.8307 117.419L42.4266 99.1994L46.9139 118.651C47.0111 119.142 46.49 119.644 45.3504 120.157C44.2023 120.637 43.2257 120.985 42.4208 121.201C41.648 121.408 40.8784 121.562 40.112 121.664C38.5061 121.853 37.6417 121.653 37.5186 121.065L30.2178 89.3746C30.0107 88.6018 31.8712 87.6892 35.7993 86.6367C36.9584 86.3261 38.401 86.0431 40.1271 85.7876C41.8445 85.5 42.8688 85.5879 43.2 86.0513L52.6856 99.8152L53.3293 83.2854C53.3947 82.3706 55.5042 81.3567 59.6577 80.2438C60.849 79.9246 62.2916 79.6416 63.9854 79.3948C65.7028 79.1072 66.6219 79.1887 66.7427 79.6395L76.6326 110.947C76.7275 111.301 76.1686 111.727 74.9561 112.224C73.7435 112.721 72.6542 113.1 71.6883 113.358ZM79.7873 92.3463C78.4544 90.978 77.6542 89.7948 77.3868 88.7966C77.1107 87.7663 77.2075 87.0329 77.6772 86.5965C79.2968 85.2998 81.7004 84.2244 84.8879 83.3703C88.1077 82.5076 90.5803 82.656 92.3059 83.8155C94.0229 84.9429 95.2739 86.9716 96.059 89.9016L98.1036 97.5324L99.7457 97.0924C100.293 96.9457 100.798 97.1555 101.26 97.7218C101.755 98.2795 102.153 99.1218 102.455 100.249C102.757 101.376 102.765 102.564 102.479 103.814C102.225 105.055 101.615 105.806 100.649 106.064C98.91 106.53 97.3843 106.439 96.0716 105.79C95.4851 105.533 94.9897 105.165 94.5854 104.687C93.6047 106.951 91.5528 108.502 88.4297 109.338C86.0792 109.968 83.8748 109.662 81.8163 108.419C79.7578 107.176 78.4223 105.411 77.8097 103.125C76.4035 97.8772 78.8396 94.4119 85.1181 92.7296L87.7744 92.0179L87.645 91.5349C87.4207 90.6978 87.1335 90.2053 86.7833 90.0576C86.4567 89.869 85.7943 89.9085 84.7962 90.1759C83.5727 90.5038 81.9031 91.2272 79.7873 92.3463ZM86.0321 100.198C86.2219 100.906 86.5618 101.401 87.0517 101.684C87.5329 101.935 88.0633 101.983 88.6429 101.827C89.2547 101.663 89.7373 101.275 90.0909 100.663L89.0944 96.9441L87.7421 97.3064C86.1966 97.7205 85.6266 98.6842 86.0321 100.198ZM111.103 89.908C111.949 93.0634 113.563 94.3218 115.945 93.6834C117.491 93.2693 118.697 92.6183 119.563 91.7305C120.046 91.6011 120.657 92.3347 121.395 93.9313C122.157 95.4871 122.62 96.5709 122.784 97.1827C122.939 97.7622 122.963 98.1702 122.853 98.4065C121.432 99.9262 119.24 101.083 116.277 101.877C113.315 102.67 110.494 102.253 107.815 100.624C105.159 98.9548 103.322 96.2204 102.304 92.4211C101.277 88.5896 101.463 85.2269 102.862 82.3329C104.293 79.4304 106.699 77.5261 110.079 76.6203C113.492 75.7058 116.079 75.8927 117.839 77.1811C118.224 77.4576 118.511 77.95 118.701 78.6584C118.882 79.3345 118.977 80.2062 118.987 81.2733C118.96 83.4892 118.522 84.8833 117.675 85.4555C117.555 85.5222 117.366 85.59 117.108 85.659C116.883 85.7194 116.541 85.6039 116.084 85.3124C114.491 84.3932 113.309 84.0371 112.536 84.2442C111.796 84.4426 111.255 85.0015 110.915 85.9209C110.575 86.8403 110.637 88.1693 111.103 89.908ZM134.836 96.0239C134.914 96.3136 133.601 96.8209 130.896 97.5456C128.224 98.2616 126.827 98.3943 126.706 97.9435L117.842 64.8605C117.781 64.6352 118.237 64.3405 119.209 63.9764C120.182 63.6124 121.006 63.3398 121.682 63.1586C124.387 62.4339 125.816 62.3613 125.972 62.9409L128.56 72.6002C130.216 71.5697 131.511 70.9293 132.445 70.6791C134.892 70.0235 137.001 70.1659 138.771 71.1064C140.533 72.0147 141.888 74.2397 142.837 77.7814L146.849 92.7533C146.927 93.043 145.71 93.5244 143.199 94.1973C140.339 94.8599 138.879 95.0785 138.819 94.8532L135.014 80.6541C134.592 79.0764 133.865 78.4256 132.835 78.7016C132.126 78.8914 131.396 79.4495 130.643 80.3759L134.836 96.0239ZM159.817 89.382C159.886 89.6396 158.44 90.1652 155.478 90.9589C152.548 91.744 151.052 92.0239 150.992 91.7985L144.638 68.085C144.578 67.8596 146.012 67.3544 148.942 66.5693C151.905 65.7756 153.412 65.4753 153.463 65.6685L159.817 89.382ZM152.7 62.819C152.76 63.0444 151.309 63.5539 148.347 64.3477C145.417 65.1327 143.926 65.4287 143.875 65.2355L142.011 58.2808C141.925 57.9589 143.347 57.4053 146.277 56.6203C149.239 55.8265 150.746 55.5263 150.797 55.7195L152.7 62.819ZM174.279 85.507C174.339 85.7324 173.211 86.1556 170.892 86.7768C167.647 87.5429 165.989 87.7972 165.92 87.5396L161.727 71.8916L160.472 72.2281C159.635 72.4524 158.897 71.8907 158.26 70.5431C158.084 70.1417 157.939 69.7318 157.827 69.3132C157.56 68.3151 157.486 67.2652 157.604 66.1636C157.804 64.5916 158.516 63.6417 159.74 63.3138C160.963 62.986 162.135 62.9825 163.257 63.3032C164.378 63.6239 165.177 64.0309 165.654 64.5242C167.217 62.242 169.399 60.7256 172.2 59.9751C175.001 59.2245 177.232 59.4376 178.894 60.6144C180.555 61.7913 181.847 64.1022 182.77 67.5474L186.652 82.0363C186.756 82.4226 185.423 82.9868 182.654 83.7287C179.917 84.4621 178.497 84.6355 178.394 84.2492L174.654 70.2915C174.222 68.6817 173.443 68.0277 172.316 68.3297C171.994 68.4159 171.582 68.6816 171.081 69.1267C170.57 69.5395 170.251 69.8319 170.125 70.0039L174.279 85.507ZM208.77 75.1781C207.061 76.9129 204.612 78.2074 201.425 79.0615C198.237 79.9156 195.26 79.5574 192.492 77.9868C189.716 76.384 187.815 73.6669 186.788 69.8354C185.753 65.9717 185.967 62.5842 187.43 59.673C188.925 56.7532 191.283 54.8619 194.502 53.9992C197.722 53.1365 200.421 53.2932 202.6 54.4694C204.811 55.637 206.231 57.396 206.861 59.7464C208.259 64.9624 205.963 68.3727 199.974 69.9774L196.642 70.8703C196.901 71.8362 197.339 72.4434 197.958 72.6917C198.6 72.8992 199.437 72.8649 200.467 72.5889C202.721 71.9849 204.724 70.8961 206.476 69.3222C206.5 69.2814 206.705 69.468 207.092 69.8819C208.236 71.0594 208.937 72.131 209.196 73.097C209.446 74.0307 209.304 74.7244 208.77 75.1781ZM198.993 62.8381C198.631 61.4858 197.79 60.9865 196.469 61.3402C195.858 61.5041 195.378 61.8397 195.031 62.3468C194.707 62.8132 194.64 63.4005 194.83 64.1088L195.231 65.606L197.839 64.9072C198.902 64.6225 199.286 63.9328 198.993 62.8381Z"/>
</mask>
<path d="M71.6883 113.358C68.8227 114.126 67.3037 114.188 67.1311 113.544L60.9276 94.4492L60.2895 115.636C60.2642 116.057 59.2213 116.544 57.1606 117.096C55.1 117.648 53.99 117.756 53.8307 117.419L42.4266 99.1994L46.9139 118.651C47.0111 119.142 46.49 119.644 45.3504 120.157C44.2023 120.637 43.2257 120.985 42.4208 121.201C41.648 121.408 40.8784 121.562 40.112 121.664C38.5061 121.853 37.6417 121.653 37.5186 121.065L30.2178 89.3746C30.0107 88.6018 31.8712 87.6892 35.7993 86.6367C36.9584 86.3261 38.401 86.0431 40.1271 85.7876C41.8445 85.5 42.8688 85.5879 43.2 86.0513L52.6856 99.8152L53.3293 83.2854C53.3947 82.3706 55.5042 81.3567 59.6577 80.2438C60.849 79.9246 62.2916 79.6416 63.9854 79.3948C65.7028 79.1072 66.6219 79.1887 66.7427 79.6395L76.6326 110.947C76.7275 111.301 76.1686 111.727 74.9561 112.224C73.7435 112.721 72.6542 113.1 71.6883 113.358ZM79.7873 92.3463C78.4544 90.978 77.6542 89.7948 77.3868 88.7966C77.1107 87.7663 77.2075 87.0329 77.6772 86.5965C79.2968 85.2998 81.7004 84.2244 84.8879 83.3703C88.1077 82.5076 90.5803 82.656 92.3059 83.8155C94.0229 84.9429 95.2739 86.9716 96.059 89.9016L98.1036 97.5324L99.7457 97.0924C100.293 96.9457 100.798 97.1555 101.26 97.7218C101.755 98.2795 102.153 99.1218 102.455 100.249C102.757 101.376 102.765 102.564 102.479 103.814C102.225 105.055 101.615 105.806 100.649 106.064C98.91 106.53 97.3843 106.439 96.0716 105.79C95.4851 105.533 94.9897 105.165 94.5854 104.687C93.6047 106.951 91.5528 108.502 88.4297 109.338C86.0792 109.968 83.8748 109.662 81.8163 108.419C79.7578 107.176 78.4223 105.411 77.8097 103.125C76.4035 97.8772 78.8396 94.4119 85.1181 92.7296L87.7744 92.0179L87.645 91.5349C87.4207 90.6978 87.1335 90.2053 86.7833 90.0576C86.4567 89.869 85.7943 89.9085 84.7962 90.1759C83.5727 90.5038 81.9031 91.2272 79.7873 92.3463ZM86.0321 100.198C86.2219 100.906 86.5618 101.401 87.0517 101.684C87.5329 101.935 88.0633 101.983 88.6429 101.827C89.2547 101.663 89.7373 101.275 90.0909 100.663L89.0944 96.9441L87.7421 97.3064C86.1966 97.7205 85.6266 98.6842 86.0321 100.198ZM111.103 89.908C111.949 93.0634 113.563 94.3218 115.945 93.6834C117.491 93.2693 118.697 92.6183 119.563 91.7305C120.046 91.6011 120.657 92.3347 121.395 93.9313C122.157 95.4871 122.62 96.5709 122.784 97.1827C122.939 97.7622 122.963 98.1702 122.853 98.4065C121.432 99.9262 119.24 101.083 116.277 101.877C113.315 102.67 110.494 102.253 107.815 100.624C105.159 98.9548 103.322 96.2204 102.304 92.4211C101.277 88.5896 101.463 85.2269 102.862 82.3329C104.293 79.4304 106.699 77.5261 110.079 76.6203C113.492 75.7058 116.079 75.8927 117.839 77.1811C118.224 77.4576 118.511 77.95 118.701 78.6584C118.882 79.3345 118.977 80.2062 118.987 81.2733C118.96 83.4892 118.522 84.8833 117.675 85.4555C117.555 85.5222 117.366 85.59 117.108 85.659C116.883 85.7194 116.541 85.6039 116.084 85.3124C114.491 84.3932 113.309 84.0371 112.536 84.2442C111.796 84.4426 111.255 85.0015 110.915 85.9209C110.575 86.8403 110.637 88.1693 111.103 89.908ZM134.836 96.0239C134.914 96.3136 133.601 96.8209 130.896 97.5456C128.224 98.2616 126.827 98.3943 126.706 97.9435L117.842 64.8605C117.781 64.6352 118.237 64.3405 119.209 63.9764C120.182 63.6124 121.006 63.3398 121.682 63.1586C124.387 62.4339 125.816 62.3613 125.972 62.9409L128.56 72.6002C130.216 71.5697 131.511 70.9293 132.445 70.6791C134.892 70.0235 137.001 70.1659 138.771 71.1064C140.533 72.0147 141.888 74.2397 142.837 77.7814L146.849 92.7533C146.927 93.043 145.71 93.5244 143.199 94.1973C140.339 94.8599 138.879 95.0785 138.819 94.8532L135.014 80.6541C134.592 79.0764 133.865 78.4256 132.835 78.7016C132.126 78.8914 131.396 79.4495 130.643 80.3759L134.836 96.0239ZM159.817 89.382C159.886 89.6396 158.44 90.1652 155.478 90.9589C152.548 91.744 151.052 92.0239 150.992 91.7985L144.638 68.085C144.578 67.8596 146.012 67.3544 148.942 66.5693C151.905 65.7756 153.412 65.4753 153.463 65.6685L159.817 89.382ZM152.7 62.819C152.76 63.0444 151.309 63.5539 148.347 64.3477C145.417 65.1327 143.926 65.4287 143.875 65.2355L142.011 58.2808C141.925 57.9589 143.347 57.4053 146.277 56.6203C149.239 55.8265 150.746 55.5263 150.797 55.7195L152.7 62.819ZM174.279 85.507C174.339 85.7324 173.211 86.1556 170.892 86.7768C167.647 87.5429 165.989 87.7972 165.92 87.5396L161.727 71.8916L160.472 72.2281C159.635 72.4524 158.897 71.8907 158.26 70.5431C158.084 70.1417 157.939 69.7318 157.827 69.3132C157.56 68.3151 157.486 67.2652 157.604 66.1636C157.804 64.5916 158.516 63.6417 159.74 63.3138C160.963 62.986 162.135 62.9825 163.257 63.3032C164.378 63.6239 165.177 64.0309 165.654 64.5242C167.217 62.242 169.399 60.7256 172.2 59.9751C175.001 59.2245 177.232 59.4376 178.894 60.6144C180.555 61.7913 181.847 64.1022 182.77 67.5474L186.652 82.0363C186.756 82.4226 185.423 82.9868 182.654 83.7287C179.917 84.4621 178.497 84.6355 178.394 84.2492L174.654 70.2915C174.222 68.6817 173.443 68.0277 172.316 68.3297C171.994 68.4159 171.582 68.6816 171.081 69.1267C170.57 69.5395 170.251 69.8319 170.125 70.0039L174.279 85.507ZM208.77 75.1781C207.061 76.9129 204.612 78.2074 201.425 79.0615C198.237 79.9156 195.26 79.5574 192.492 77.9868C189.716 76.384 187.815 73.6669 186.788 69.8354C185.753 65.9717 185.967 62.5842 187.43 59.673C188.925 56.7532 191.283 54.8619 194.502 53.9992C197.722 53.1365 200.421 53.2932 202.6 54.4694C204.811 55.637 206.231 57.396 206.861 59.7464C208.259 64.9624 205.963 68.3727 199.974 69.9774L196.642 70.8703C196.901 71.8362 197.339 72.4434 197.958 72.6917C198.6 72.8992 199.437 72.8649 200.467 72.5889C202.721 71.9849 204.724 70.8961 206.476 69.3222C206.5 69.2814 206.705 69.468 207.092 69.8819C208.236 71.0594 208.937 72.131 209.196 73.097C209.446 74.0307 209.304 74.7244 208.77 75.1781ZM198.993 62.8381C198.631 61.4858 197.79 60.9865 196.469 61.3402C195.858 61.5041 195.378 61.8397 195.031 62.3468C194.707 62.8132 194.64 63.4005 194.83 64.1088L195.231 65.606L197.839 64.9072C198.902 64.6225 199.286 63.9328 198.993 62.8381Z" fill="#F3EDF3"/>
<path d="M67.1311 113.544L70.0289 112.768L70.0086 112.692L69.9843 112.617L67.1311 113.544ZM60.9276 94.4492L63.7808 93.5222L57.9289 94.3589L60.9276 94.4492ZM60.2895 115.636L63.2841 115.816L63.2868 115.771L63.2881 115.727L60.2895 115.636ZM53.8307 117.419L56.5428 116.136L56.4673 115.977L56.3736 115.827L53.8307 117.419ZM42.4266 99.1994L44.9696 97.6077L39.5034 99.8738L42.4266 99.1994ZM46.9139 118.651L49.8569 118.069L49.8478 118.023L49.8372 117.976L46.9139 118.651ZM45.3504 120.157L46.508 122.925L46.5446 122.909L46.5807 122.893L45.3504 120.157ZM40.112 121.664L40.4622 124.643L40.4847 124.641L40.5072 124.638L40.112 121.664ZM37.5186 121.065L40.455 120.45L40.4488 120.421L40.442 120.391L37.5186 121.065ZM30.2178 89.3746L33.1412 88.7011L33.1293 88.6494L33.1155 88.5981L30.2178 89.3746ZM40.1271 85.7876L40.5662 88.7553L40.5945 88.7511L40.6226 88.7464L40.1271 85.7876ZM43.2 86.0513L45.6702 84.3489L45.6556 84.3277L45.6406 84.3068L43.2 86.0513ZM52.6856 99.8152L50.2154 101.518L55.3324 108.943L55.6833 99.932L52.6856 99.8152ZM53.3293 83.2854L50.3369 83.0712L50.3334 83.1199L50.3315 83.1686L53.3293 83.2854ZM63.9854 79.3948L64.418 82.3634L64.4495 82.3589L64.481 82.3536L63.9854 79.3948ZM66.7427 79.6395L63.8449 80.416L63.8621 80.48L63.882 80.5432L66.7427 79.6395ZM76.6326 110.947L79.5303 110.17L79.5132 110.106L79.4932 110.043L76.6326 110.947ZM74.9561 112.224L76.0947 115L76.0947 115L74.9561 112.224ZM70.9119 110.461C69.5314 110.831 68.6955 110.966 68.2776 110.983C68.0469 110.993 68.1843 110.953 68.489 111.058C68.6638 111.118 68.9721 111.253 69.2879 111.543C69.6279 111.855 69.8973 112.277 70.0289 112.768L64.2334 114.321C64.6188 115.759 65.7379 116.457 66.537 116.732C67.2646 116.982 67.9932 117 68.5221 116.978C69.6233 116.933 70.9796 116.654 72.4648 116.256L70.9119 110.461ZM69.9843 112.617L63.7808 93.5222L58.0744 95.3761L64.2779 114.471L69.9843 112.617ZM57.9289 94.3589L57.2908 115.546L63.2881 115.727L63.9262 94.5395L57.9289 94.3589ZM57.2949 115.457C57.3287 114.893 57.5273 114.459 57.705 114.181C57.8757 113.914 58.051 113.751 58.1375 113.678C58.2967 113.543 58.372 113.527 58.2201 113.598C57.938 113.73 57.3624 113.936 56.3842 114.198L57.9371 119.994C59.0195 119.704 59.9956 119.391 60.7565 119.036C61.1261 118.863 61.5957 118.613 62.0219 118.251C62.3855 117.942 63.2047 117.139 63.2841 115.816L57.2949 115.457ZM56.3842 114.198C55.3972 114.463 54.7963 114.575 54.4932 114.605C54.3216 114.621 54.4216 114.592 54.6618 114.636C54.7898 114.659 55.0788 114.723 55.4182 114.916C55.7822 115.124 56.2447 115.506 56.5428 116.136L51.1186 118.701C51.7997 120.142 53.1672 120.463 53.5951 120.54C54.1526 120.641 54.6887 120.614 55.0722 120.577C55.879 120.498 56.8634 120.281 57.9371 119.994L56.3842 114.198ZM56.3736 115.827L44.9696 97.6077L39.8837 100.791L51.2878 119.01L56.3736 115.827ZM39.5034 99.8738L43.9907 119.325L49.8372 117.976L45.3499 98.5251L39.5034 99.8738ZM43.9709 119.233C43.869 118.718 43.9473 118.229 44.1116 117.844C44.2602 117.496 44.4484 117.299 44.5148 117.235C44.6199 117.134 44.5694 117.219 44.1201 117.421L46.5807 122.893C47.271 122.583 48.0509 122.16 48.6772 121.557C49.3196 120.938 50.1829 119.717 49.8569 118.069L43.9709 119.233ZM44.1929 117.389C43.1146 117.84 42.273 118.134 41.6443 118.303L43.1972 124.098C44.1784 123.836 45.2899 123.434 46.508 122.925L44.1929 117.389ZM41.6443 118.303C40.9926 118.477 40.3503 118.606 39.7169 118.69L40.5072 124.638C41.4066 124.518 42.3035 124.338 43.1972 124.098L41.6443 118.303ZM39.7619 118.684C39.4465 118.722 39.2169 118.733 39.06 118.733C38.8942 118.732 38.8676 118.717 38.9346 118.733C38.9898 118.745 39.2819 118.818 39.6209 119.088C40.0129 119.401 40.335 119.877 40.455 120.45L34.5822 121.679C34.9905 123.631 36.6312 124.359 37.5839 124.579C38.5231 124.796 39.5503 124.751 40.4622 124.643L39.7619 118.684ZM40.442 120.391L33.1412 88.7011L27.2943 90.0481L34.5951 121.738L40.442 120.391ZM33.1155 88.5981C33.4561 89.869 32.7429 90.7155 32.5916 90.8697C32.4455 91.0187 32.4248 90.9777 32.7791 90.8039C33.4392 90.4801 34.6568 90.0486 36.5758 89.5344L35.0229 83.7389C33.0138 84.2772 31.3371 84.8283 30.1367 85.4171C29.5606 85.6997 28.8682 86.0975 28.3086 86.6678C27.744 87.2434 26.8759 88.4937 27.32 90.151L33.1155 88.5981ZM36.5758 89.5344C37.5865 89.2636 38.9078 89.0007 40.5662 88.7553L39.6879 82.8199C37.8942 83.0854 36.3303 83.3885 35.0229 83.7389L36.5758 89.5344ZM40.6226 88.7464C40.983 88.6861 41.274 88.6511 41.5031 88.6344C41.7369 88.6173 41.8711 88.622 41.9269 88.6268C41.9943 88.6326 41.8886 88.6333 41.6914 88.5531C41.4827 88.4682 41.0886 88.2564 40.7594 87.7958L45.6406 84.3068C44.676 82.9572 43.1686 82.7113 42.4398 82.6488C41.5628 82.5736 40.5925 82.6679 39.6315 82.8288L40.6226 88.7464ZM40.7298 87.7536L50.2154 101.518L55.1558 98.1128L45.6702 84.3489L40.7298 87.7536ZM55.6833 99.932L56.327 83.4021L50.3315 83.1686L49.6879 99.6985L55.6833 99.932ZM56.3216 83.4995C56.2892 83.9528 56.1359 84.296 56.0067 84.5066C55.884 84.7066 55.7712 84.8083 55.752 84.8253C55.7289 84.8458 55.8505 84.7397 56.26 84.5428C57.0618 84.1575 58.4148 83.6827 60.4342 83.1416L58.8812 77.346C56.7472 77.9179 54.9687 78.5065 53.6609 79.135C53.0157 79.4451 52.338 79.8335 51.7712 80.3361C51.2432 80.8044 50.4343 81.7099 50.3369 83.0712L56.3216 83.4995ZM60.4342 83.1416C61.4785 82.8618 62.7992 82.5993 64.418 82.3634L63.5529 76.4261C61.7839 76.6839 60.2196 76.9874 58.8812 77.346L60.4342 83.1416ZM64.481 82.3536C64.849 82.292 65.1381 82.2563 65.3576 82.2392C65.466 82.2307 65.549 82.2274 65.6095 82.2268C65.671 82.2262 65.6984 82.2286 65.6976 82.2285C65.6964 82.2284 65.6846 82.2273 65.6637 82.2241C65.6429 82.2208 65.6094 82.2149 65.5654 82.2042C65.4836 82.1844 65.3279 82.1396 65.1354 82.0411C64.9402 81.9412 64.6758 81.7696 64.4231 81.4869C64.16 81.1924 63.9551 80.8272 63.8449 80.416L69.6405 78.863C69.3377 77.7331 68.5506 77.0489 67.8695 76.7002C67.2553 76.3858 66.6447 76.289 66.228 76.252C65.3811 76.1768 64.4197 76.2803 63.4899 76.436L64.481 82.3536ZM63.882 80.5432L73.7719 111.85L79.4932 110.043L69.6034 78.7358L63.882 80.5432ZM73.7348 111.723C73.5015 110.852 73.7517 110.114 74.0028 109.692C74.2187 109.329 74.4501 109.158 74.4664 109.145C74.5038 109.117 74.3518 109.229 73.8174 109.448L76.0947 115C76.7729 114.721 77.5066 114.372 78.1028 113.918C78.3986 113.692 78.8276 113.317 79.1595 112.759C79.5266 112.142 79.8111 111.218 79.5303 110.17L73.7348 111.723ZM73.8174 109.448C72.6889 109.911 71.7236 110.243 70.9119 110.461L72.4648 116.256C73.5849 115.956 74.7981 115.531 76.0947 115L73.8174 109.448ZM79.7873 92.3463L77.6383 94.4396L79.2051 96.048L81.1899 94.9982L79.7873 92.3463ZM77.6772 86.5965L75.8022 84.2546L75.716 84.3236L75.6352 84.3988L77.6772 86.5965ZM92.3059 83.8155L90.6327 86.3056L90.6459 86.3145L90.6593 86.3233L92.3059 83.8155ZM98.1036 97.5324L95.2059 98.3088L95.9823 101.207L98.8801 100.43L98.1036 97.5324ZM101.26 97.7218L98.9363 99.6191L98.975 99.6665L99.0156 99.7122L101.26 97.7218ZM102.479 103.814L99.5542 103.144L99.5464 103.178L99.5395 103.213L102.479 103.814ZM96.0716 105.79L97.4012 103.1L97.339 103.07L97.2755 103.042L96.0716 105.79ZM94.5854 104.687L96.8768 102.75L93.7548 99.0561L91.8326 103.494L94.5854 104.687ZM81.8163 108.419L83.3669 105.851L81.8163 108.419ZM87.7744 92.0179L88.5509 94.9156L91.4487 94.1392L90.6722 91.2414L87.7744 92.0179ZM86.7833 90.0576L85.2833 92.6557L85.4451 92.7491L85.6171 92.8217L86.7833 90.0576ZM87.0517 101.684L85.5517 104.282L85.6081 104.315L85.6659 104.345L87.0517 101.684ZM90.0909 100.663L92.6889 102.163L93.3103 101.087L92.9886 99.8864L90.0909 100.663ZM89.0944 96.9441L91.9922 96.1676L91.2157 93.2699L88.3179 94.0463L89.0944 96.9441ZM81.9362 90.253C80.7047 88.9887 80.3486 88.2591 80.2845 88.0202L74.489 89.5731C74.9599 91.3304 76.2041 92.9673 77.6383 94.4396L81.9362 90.253ZM80.2845 88.0202C80.2071 87.7312 80.2472 87.7098 80.2265 87.8665C80.2145 87.9576 80.1815 88.1081 80.0949 88.2871C80.0057 88.4712 79.8783 88.6465 79.7193 88.7942L75.6352 84.3988C73.9069 86.0047 74.1268 88.2213 74.489 89.5731L80.2845 88.0202ZM79.5522 88.9384C80.713 88.009 82.6675 87.0711 85.6644 86.2681L84.1115 80.4725C80.7332 81.3777 77.8806 82.5906 75.8022 84.2546L79.5522 88.9384ZM85.6644 86.2681C88.5432 85.4967 89.9644 85.8565 90.6327 86.3056L93.9792 81.3255C91.1962 79.4554 87.6722 79.5184 84.1115 80.4725L85.6644 86.2681ZM90.6593 86.3233C91.5244 86.8913 92.4778 88.1276 93.1612 90.678L98.9568 89.1251C98.07 85.8156 96.5214 82.9945 93.9525 81.3078L90.6593 86.3233ZM93.1612 90.678L95.2059 98.3088L101.001 96.7559L98.9568 89.1251L93.1612 90.678ZM98.8801 100.43L100.522 99.9902L98.9693 94.1946L97.3272 94.6346L98.8801 100.43ZM100.522 99.9902C100.182 100.081 99.7656 100.069 99.3835 99.91C99.0511 99.7718 98.9168 99.5951 98.9363 99.6191L103.584 95.8246C103.141 95.2823 102.524 94.7175 101.686 94.3695C100.799 94.0008 99.8569 93.9568 98.9693 94.1946L100.522 99.9902ZM99.0156 99.7122C99.0751 99.7793 99.3144 100.119 99.5572 101.025L105.353 99.4723C104.992 98.1244 104.434 96.7797 103.505 95.7314L99.0156 99.7122ZM99.5572 101.025C99.7203 101.634 99.7423 102.323 99.5542 103.144L105.403 104.484C105.787 102.805 105.794 101.117 105.353 99.4723L99.5572 101.025ZM99.5395 103.213C99.4803 103.502 99.4233 103.513 99.503 103.415C99.5451 103.363 99.608 103.303 99.6888 103.252C99.7687 103.2 99.8364 103.176 99.8722 103.167L101.425 108.962C103.799 108.326 105.008 106.416 105.418 104.416L99.5395 103.213ZM99.8722 103.167C98.6694 103.489 97.9197 103.357 97.4012 103.1L94.7419 108.479C96.8488 109.521 99.1505 109.572 101.425 108.962L99.8722 103.167ZM97.2755 103.042C97.0989 102.965 96.9785 102.871 96.8768 102.75L92.2941 106.623C93.0009 107.459 93.8712 108.101 94.8676 108.538L97.2755 103.042ZM91.8326 103.494C91.3225 104.672 90.1884 105.761 87.6532 106.441L89.2061 112.236C92.9173 111.242 95.887 109.23 97.3383 105.879L91.8326 103.494ZM87.6532 106.441C86.0804 106.862 84.7175 106.666 83.3669 105.851L80.2656 110.987C83.0321 112.657 86.0781 113.074 89.2061 112.236L87.6532 106.441ZM83.3669 105.851C81.9602 105.001 81.1158 103.873 80.7075 102.349L74.912 103.902C75.7287 106.95 77.5553 109.351 80.2656 110.987L83.3669 105.851ZM80.7075 102.349C80.1643 100.322 80.4671 99.1254 81.0364 98.3157C81.6828 97.3961 83.088 96.3794 85.8946 95.6274L84.3417 89.8318C80.8697 90.7622 77.9176 92.3192 76.1279 94.865C74.261 97.5205 74.0489 100.681 74.912 103.902L80.7075 102.349ZM85.8946 95.6274L88.5509 94.9156L86.998 89.1201L84.3417 89.8318L85.8946 95.6274ZM90.6722 91.2414L90.5428 90.7584L84.7472 92.3114L84.8766 92.7943L90.6722 91.2414ZM90.5428 90.7584C90.3935 90.2012 90.1811 89.5891 89.8527 89.0262C89.5375 88.4857 88.9552 87.7179 87.9495 87.2935L85.6171 92.8217C84.9616 92.5451 84.698 92.0973 84.67 92.0493C84.6289 91.9788 84.6723 92.0315 84.7472 92.3114L90.5428 90.7584ZM88.2833 87.4595C87.3546 86.9234 86.3904 86.9197 85.8633 86.9511C85.2508 86.9875 84.6192 87.1175 84.0198 87.2781L85.5727 93.0737C85.762 93.023 85.9121 92.9894 86.0271 92.9681C86.1443 92.9465 86.2052 92.9413 86.2199 92.9405C86.2399 92.9393 86.166 92.9462 86.0281 92.9254C85.8951 92.9053 85.6133 92.8462 85.2833 92.6557L88.2833 87.4595ZM84.0198 87.2781C82.4648 87.6948 80.5567 88.5455 78.3846 89.6944L81.1899 94.9982C83.2494 93.9089 84.6807 93.3127 85.5727 93.0737L84.0198 87.2781ZM83.1343 100.974C83.4664 102.213 84.1855 103.494 85.5517 104.282L88.5517 99.0862C88.7186 99.1826 88.8362 99.3057 88.9035 99.4039C88.963 99.4906 88.9555 99.5167 88.9299 99.4211L83.1343 100.974ZM85.6659 104.345C86.8854 104.98 88.1978 105.052 89.4194 104.725L87.8664 98.9296C87.8743 98.9275 87.9518 98.9087 88.079 98.9201C88.2115 98.932 88.3373 98.9714 88.4374 99.0235L85.6659 104.345ZM89.4194 104.725C90.8923 104.33 91.9883 103.377 92.6889 102.163L87.4928 99.1629C87.4755 99.1929 87.4979 99.1444 87.5836 99.0755C87.6747 99.0022 87.7789 98.953 87.8664 98.9296L89.4194 104.725ZM92.9886 99.8864L91.9922 96.1676L86.1966 97.7205L87.1931 101.439L92.9886 99.8864ZM88.3179 94.0463L86.9657 94.4087L88.5186 100.204L89.8709 99.8419L88.3179 94.0463ZM86.9657 94.4087C85.7614 94.7313 84.402 95.4115 83.5734 96.8125C82.7364 98.2276 82.8077 99.755 83.1343 100.974L88.9299 99.4211C88.8923 99.2809 88.9104 99.2728 88.9043 99.3644C88.8972 99.4721 88.8594 99.6612 88.7376 99.8671C88.479 100.304 88.1774 100.296 88.5186 100.204L86.9657 94.4087ZM119.563 91.7305L118.787 88.8327L117.991 89.0459L117.416 89.6353L119.563 91.7305ZM121.395 93.9313L118.672 95.1906L118.686 95.2209L118.701 95.2509L121.395 93.9313ZM122.853 98.4065L125.044 100.456L125.374 100.103L125.576 99.6651L122.853 98.4065ZM107.815 100.624L106.218 103.164L106.237 103.176L106.257 103.188L107.815 100.624ZM102.862 82.3329L100.171 81.0065L100.166 81.017L100.161 81.0275L102.862 82.3329ZM117.839 77.1811L116.067 79.6018L116.077 79.6095L116.088 79.617L117.839 77.1811ZM118.987 81.2733L121.987 81.3104L121.987 81.278L121.987 81.2456L118.987 81.2733ZM117.675 85.4555L119.131 88.0784L119.245 88.015L119.354 87.9418L117.675 85.4555ZM116.084 85.3124L117.695 82.782L117.64 82.7469L117.584 82.7144L116.084 85.3124ZM110.915 85.9209L113.728 86.9623L113.728 86.9623L110.915 85.9209ZM108.206 90.6845C108.704 92.5439 109.556 94.3776 111.103 95.5842C112.808 96.9132 114.831 97.0879 116.722 96.5812L115.169 90.7856C114.89 90.8604 114.77 90.8431 114.763 90.842C114.759 90.8415 114.769 90.8429 114.784 90.8496C114.799 90.8562 114.803 90.8604 114.793 90.8525C114.726 90.8007 114.348 90.4275 114.001 89.1316L108.206 90.6845ZM116.722 96.5812C118.64 96.0672 120.373 95.1959 121.71 93.8258L117.416 89.6353C117.021 90.0407 116.342 90.4714 115.169 90.7856L116.722 96.5812ZM120.34 94.6283C119.535 94.8439 118.863 94.6226 118.499 94.4212C118.184 94.2472 118.051 94.0706 118.078 94.103C118.13 94.1662 118.337 94.466 118.672 95.1906L124.118 92.6721C123.715 91.8 123.247 90.9347 122.689 90.2643C122.323 89.8244 120.919 88.2615 118.787 88.8327L120.34 94.6283ZM118.701 95.2509C119.476 96.8331 119.809 97.6689 119.886 97.9591L125.682 96.4062C125.432 95.4729 124.839 94.1412 124.09 92.6118L118.701 95.2509ZM119.886 97.9591C119.933 98.1335 119.927 98.1647 119.923 98.0924C119.92 98.051 119.917 97.9472 119.937 97.7993C119.957 97.6526 120.005 97.4195 120.13 97.1479L125.576 99.6651C125.922 98.9166 125.938 98.1966 125.913 97.7542C125.886 97.2739 125.791 96.8114 125.682 96.4062L119.886 97.9591ZM120.663 96.357C119.764 97.3173 118.162 98.2658 115.501 98.9789L117.054 104.774C120.317 103.9 123.099 102.535 125.044 100.456L120.663 96.357ZM115.501 98.9789C113.35 99.5553 111.37 99.2747 109.373 98.0607L106.257 103.188C109.618 105.231 113.281 105.786 117.054 104.774L115.501 98.9789ZM109.411 98.0844C107.548 96.9129 106.076 94.9066 105.202 91.6446L99.4062 93.1975C100.568 97.5342 102.77 100.997 106.218 103.164L109.411 98.0844ZM105.202 91.6446C104.316 88.3393 104.546 85.7426 105.563 83.6384L100.161 81.0275C98.3806 84.7111 98.2385 88.8398 99.4062 93.1975L105.202 91.6446ZM105.553 83.6594C106.568 81.6004 108.233 80.2209 110.856 79.518L109.303 73.7225C105.164 74.8314 102.018 77.2603 100.171 81.0065L105.553 83.6594ZM110.856 79.518C113.93 78.6942 115.396 79.1106 116.067 79.6018L119.611 74.7603C116.762 72.6748 113.054 72.7173 109.303 73.7225L110.856 79.518ZM116.088 79.617C115.876 79.4648 115.778 79.3142 115.751 79.2693C115.729 79.2304 115.758 79.2688 115.803 79.4348L121.598 77.8819C121.323 76.8523 120.773 75.5953 119.59 74.7451L116.088 79.617ZM115.803 79.4348C115.894 79.7747 115.979 80.3694 115.987 81.301L121.987 81.2456C121.976 80.0429 121.87 78.8944 121.598 77.8819L115.803 79.4348ZM115.987 81.2362C115.976 82.1864 115.875 82.7688 115.776 83.0826C115.676 83.4027 115.66 83.1964 115.996 82.9691L119.354 87.9418C120.538 87.1424 121.164 85.9529 121.501 84.879C121.84 83.7988 121.971 82.5762 121.987 81.3104L115.987 81.2362ZM116.219 82.8325C116.289 82.7935 116.344 82.7685 116.374 82.7552C116.406 82.7414 116.425 82.7343 116.429 82.7331C116.433 82.7315 116.405 82.7418 116.332 82.7613L117.885 88.5568C118.202 88.4719 118.68 88.3288 119.131 88.0784L116.219 82.8325ZM116.332 82.7613C117.025 82.5757 117.538 82.7398 117.644 82.7759C117.786 82.8237 117.812 82.8563 117.695 82.782L114.472 87.8429C114.813 88.0601 115.239 88.2961 115.722 88.4595C116.17 88.6111 116.967 88.8028 117.885 88.5568L116.332 82.7613ZM117.584 82.7144C116.674 82.1894 115.76 81.752 114.868 81.4834C114.01 81.225 112.903 81.0401 111.76 81.3464L113.313 87.1419C112.942 87.2411 112.813 87.1308 113.138 87.2285C113.428 87.316 113.901 87.5162 114.584 87.9105L117.584 82.7144ZM111.76 81.3464C109.822 81.8657 108.675 83.3305 108.102 84.8795L113.728 86.9623C113.791 86.794 113.816 86.8111 113.732 86.8975C113.689 86.9422 113.627 86.9949 113.545 87.043C113.464 87.0912 113.383 87.1231 113.313 87.1419L111.76 81.3464ZM108.102 84.8795C107.429 86.6952 107.695 88.7802 108.206 90.6845L114.001 89.1316C113.806 88.4022 113.722 87.8556 113.704 87.4657C113.685 87.0685 113.739 86.9349 113.728 86.9623L108.102 84.8795ZM119.209 63.9764L120.261 66.7859L120.261 66.7859L119.209 63.9764ZM128.56 72.6002L125.662 73.3766L126.709 77.2846L130.145 75.1474L128.56 72.6002ZM138.771 71.1064L137.364 73.7557L137.38 73.7644L137.397 73.7728L138.771 71.1064ZM143.199 94.1973L143.876 97.1199L143.926 97.1083L143.975 97.0951L143.199 94.1973ZM130.643 80.3759L128.315 78.4842L127.349 79.6729L127.746 81.1523L130.643 80.3759ZM131.939 96.8003C131.606 95.5608 132.171 94.6332 132.44 94.2904C132.705 93.9527 132.968 93.7862 133.008 93.7608C133.117 93.6905 133.106 93.716 132.829 93.823C132.327 94.0169 131.448 94.2917 130.119 94.6478L131.672 100.443C133.048 100.075 134.179 99.7335 134.99 99.4202C135.37 99.2736 135.842 99.0726 136.26 98.8031C136.454 98.6781 136.827 98.4188 137.16 97.9951C137.497 97.5662 138.086 96.5594 137.734 95.2474L131.939 96.8003ZM130.119 94.6478C128.821 94.9956 128.001 95.1537 127.561 95.1955C127.311 95.2193 127.398 95.1828 127.652 95.236C127.787 95.2645 128.133 95.3512 128.521 95.6199C128.959 95.9235 129.409 96.4381 129.604 97.1671L123.808 98.72C124.292 100.525 125.903 101 126.42 101.108C127.054 101.241 127.68 101.211 128.128 101.169C129.084 101.078 130.298 100.812 131.672 100.443L130.119 94.6478ZM129.604 97.1671L120.739 64.0841L114.944 65.637L123.808 98.72L129.604 97.1671ZM120.739 64.0841C121.051 65.2458 120.555 66.1338 120.281 66.4945C120.026 66.8294 119.778 66.9827 119.767 66.9899C119.717 67.0221 119.83 66.9476 120.261 66.7859L118.157 61.1669C117.617 61.3693 117.015 61.6241 116.51 61.951C116.271 62.1056 115.859 62.3976 115.505 62.8625C115.132 63.3532 114.602 64.3626 114.944 65.637L120.739 64.0841ZM120.261 66.7859C121.182 66.4413 121.908 66.2038 122.458 66.0564L120.905 60.2608C120.103 60.4758 119.181 60.7835 118.157 61.1669L120.261 66.7859ZM122.458 66.0564C123.761 65.7073 124.546 65.5765 124.935 65.5568C125.153 65.5457 125.01 65.5843 124.702 65.4859C124.528 65.43 124.206 65.3001 123.873 65.0076C123.512 64.6899 123.216 64.2474 123.074 63.7173L128.87 62.1644C128.471 60.6769 127.287 60.0131 126.53 59.7711C125.826 59.5459 125.128 59.5393 124.631 59.5645C123.59 59.6174 122.307 59.8852 120.905 60.2608L122.458 66.0564ZM123.074 63.7173L125.662 73.3766L131.458 71.8237L128.87 62.1644L123.074 63.7173ZM130.145 75.1474C131.751 74.1481 132.736 73.7072 133.222 73.5769L131.669 67.7814C130.287 68.1515 128.682 68.9912 126.975 70.0529L130.145 75.1474ZM133.222 73.5769C135.137 73.0638 136.428 73.2583 137.364 73.7557L140.179 68.457C137.574 67.0734 134.648 66.9832 131.669 67.7814L133.222 73.5769ZM137.397 73.7728C137.974 74.0706 139.039 75.198 139.94 78.5579L145.735 77.005C144.738 73.2814 143.092 69.9587 140.146 68.4399L137.397 73.7728ZM139.94 78.5579L143.951 93.5297L149.747 91.9768L145.735 77.005L139.94 78.5579ZM143.951 93.5297C143.644 92.3832 144.111 91.492 144.393 91.1045C144.656 90.7432 144.928 90.5595 144.983 90.5221C145.118 90.4311 145.139 90.4437 144.891 90.5419C144.449 90.717 143.652 90.9699 142.422 91.2995L143.975 97.0951C145.256 96.7518 146.324 96.4276 147.098 96.1213C147.458 95.9788 147.927 95.7747 148.346 95.4909C148.544 95.3571 148.918 95.083 149.242 94.6373C149.586 94.1654 150.074 93.1958 149.747 91.9768L143.951 93.5297ZM142.521 91.2748C141.109 91.602 140.123 91.8002 139.515 91.8913C139.188 91.9402 139.094 91.9388 139.14 91.939C139.162 91.9391 139.219 91.94 139.301 91.9482C139.376 91.9557 139.524 91.9745 139.713 92.0271C139.884 92.0747 140.229 92.1883 140.603 92.4578C141.008 92.7501 141.502 93.274 141.717 94.0767L135.921 95.6296C136.371 97.3079 137.863 97.7403 138.102 97.8066C138.537 97.9282 138.925 97.9381 139.113 97.9389C139.539 97.9408 140 97.8856 140.404 97.8252C141.255 97.6977 142.429 97.4553 143.876 97.1199L142.521 91.2748ZM141.717 94.0767L137.912 79.8776L132.117 81.4305L135.921 95.6296L141.717 94.0767ZM137.912 79.8776C137.641 78.8657 137.155 77.6444 136.154 76.7481C134.956 75.675 133.443 75.4327 132.058 75.8039L133.611 81.5994C133.496 81.6302 133.248 81.6714 132.925 81.6024C132.589 81.5308 132.324 81.3728 132.151 81.2173C131.995 81.0778 131.952 80.9774 131.974 81.0196C131.995 81.0603 132.051 81.1847 132.117 81.4305L137.912 79.8776ZM132.058 75.8039C130.464 76.2312 129.237 77.3492 128.315 78.4842L132.972 82.2675C133.241 81.9365 133.446 81.7467 133.577 81.6464C133.707 81.5471 133.718 81.5707 133.611 81.5994L132.058 75.8039ZM127.746 81.1523L131.939 96.8003L137.734 95.2474L133.541 79.5994L127.746 81.1523ZM156.92 90.1584C156.51 88.6312 157.423 87.6068 157.602 87.4196C157.863 87.1465 158.097 87.0205 158.102 87.0175C158.156 86.987 158.081 87.0329 157.76 87.1498C157.163 87.3666 156.163 87.6694 154.701 88.0611L156.254 93.8567C157.754 93.4548 158.959 93.0979 159.809 92.789C160.21 92.643 160.67 92.4596 161.068 92.2334C161.245 92.1324 161.604 91.9169 161.942 91.5627C162.198 91.2943 163.142 90.1971 162.715 88.6055L156.92 90.1584ZM154.701 88.0611C153.253 88.4492 152.237 88.6909 151.607 88.8088C151.269 88.872 151.164 88.8759 151.201 88.8746C151.221 88.8739 151.277 88.8725 151.357 88.8774C151.43 88.8817 151.58 88.8943 151.772 88.9398C151.944 88.9804 152.306 89.0826 152.701 89.3502C153.135 89.6437 153.665 90.1827 153.89 91.022L148.094 92.5749C148.567 94.3397 150.175 94.7275 150.392 94.7788C150.834 94.8835 151.225 94.8775 151.411 94.8709C151.837 94.856 152.3 94.7832 152.711 94.7064C153.576 94.5445 154.772 94.2537 156.254 93.8567L154.701 88.0611ZM153.89 91.022L147.536 67.3085L141.74 68.8614L148.094 92.5749L153.89 91.022ZM147.536 67.3085C147.761 68.1478 147.571 68.8795 147.343 69.3505C147.134 69.78 146.871 70.0497 146.743 70.1706C146.599 70.3061 146.476 70.3918 146.415 70.4322C146.347 70.4766 146.299 70.503 146.281 70.5125C146.248 70.5299 146.341 70.4807 146.665 70.3667C147.27 70.1537 148.271 69.8551 149.719 69.4671L148.166 63.6715C146.684 64.0685 145.502 64.4151 144.672 64.7073C144.279 64.8459 143.841 65.0144 143.465 65.2145C143.3 65.3021 142.959 65.4921 142.628 65.8041C142.466 65.9571 141.267 67.0967 141.74 68.8614L147.536 67.3085ZM149.719 69.4671C151.186 69.074 152.226 68.8213 152.88 68.691C153.227 68.6219 153.36 68.6089 153.357 68.6091C153.347 68.6098 153.305 68.6125 153.24 68.6116C153.182 68.6108 153.051 68.6067 152.879 68.5777C152.735 68.5536 152.375 68.4832 151.965 68.2525C151.524 68.0044 150.835 67.45 150.566 66.445L156.361 64.892C156.085 63.8629 155.378 63.2882 154.908 63.0237C154.469 62.7765 154.068 62.6935 153.873 62.6607C153.47 62.5929 153.115 62.6116 152.946 62.6232C152.553 62.6502 152.115 62.7256 151.708 62.8066C150.855 62.9766 149.661 63.2709 148.166 63.6715L149.719 69.4671ZM150.566 66.445L156.92 90.1584L162.715 88.6055L156.361 64.892L150.566 66.445ZM149.802 63.5955C149.574 62.7461 149.771 62.0084 150.002 61.5389C150.213 61.1108 150.477 60.8431 150.604 60.7242C150.747 60.5906 150.869 60.5063 150.93 60.4668C150.996 60.4235 151.043 60.3978 151.06 60.389C151.089 60.3737 150.991 60.4244 150.663 60.5397C150.049 60.7554 149.035 61.0574 147.571 61.4499L149.124 67.2454C150.621 66.8442 151.814 66.4946 152.651 66.2007C153.048 66.0612 153.487 65.8927 153.864 65.6937C154.028 65.6066 154.369 65.4182 154.699 65.1095C154.852 64.9667 156.075 63.8233 155.598 62.0426L149.802 63.5955ZM147.571 61.4499C146.12 61.8386 145.092 62.0878 144.447 62.2159C144.105 62.2838 143.977 62.2958 143.984 62.2953C143.995 62.2946 144.038 62.2919 144.105 62.293C144.164 62.294 144.296 62.2986 144.471 62.3286C144.616 62.3537 144.977 62.4262 145.387 62.6597C145.828 62.9114 146.506 63.4656 146.772 64.4591L140.977 66.012C141.249 67.0295 141.945 67.6041 142.415 67.8723C142.854 68.1223 143.255 68.2075 143.452 68.2415C143.857 68.3113 144.213 68.2933 144.383 68.2821C144.775 68.2559 145.212 68.1811 145.616 68.101C146.461 67.9331 147.644 67.6418 149.124 67.2454L147.571 61.4499ZM146.772 64.4591L144.909 57.5044L139.113 59.0573L140.977 66.012L146.772 64.4591ZM144.909 57.5044C145.231 58.7076 144.703 59.6185 144.432 59.9727C144.17 60.3138 143.91 60.4811 143.874 60.5049C143.773 60.5712 143.798 60.5377 144.101 60.4198C144.654 60.2048 145.612 59.9041 147.053 59.518L145.5 53.7225C144.011 54.1215 142.794 54.4901 141.924 54.8286C141.516 54.9875 141.019 55.2018 140.584 55.487C140.381 55.6203 140.001 55.8897 139.667 56.3258C139.323 56.7749 138.769 57.7736 139.113 59.0573L144.909 57.5044ZM147.053 59.518C148.52 59.125 149.56 58.8723 150.215 58.7419C150.561 58.6729 150.694 58.6598 150.691 58.66C150.681 58.6607 150.639 58.6635 150.574 58.6626C150.516 58.6618 150.385 58.6577 150.213 58.6287C150.069 58.6046 149.709 58.5341 149.299 58.3034C148.858 58.0553 148.169 57.5009 147.9 56.4959L153.695 54.943C153.419 53.9138 152.712 53.3392 152.242 53.0746C151.803 52.8275 151.402 52.7445 151.207 52.7116C150.804 52.6439 150.449 52.6625 150.28 52.6741C149.888 52.7011 149.449 52.7765 149.042 52.8576C148.189 53.0275 146.995 53.3218 145.5 53.7225L147.053 59.518ZM147.9 56.4959L149.802 63.5955L155.598 62.0426L153.695 54.943L147.9 56.4959ZM170.892 86.7768L171.582 89.6966L171.625 89.6862L171.669 89.6746L170.892 86.7768ZM161.727 71.8916L164.625 71.1152L163.849 68.2174L160.951 68.9939L161.727 71.8916ZM158.26 70.5431L155.514 71.7511L155.531 71.7885L155.548 71.8254L158.26 70.5431ZM157.604 66.1636L154.628 65.785L154.625 65.8133L154.622 65.8416L157.604 66.1636ZM163.257 63.3032L162.432 66.1875L162.432 66.1875L163.257 63.3032ZM165.654 64.5242L163.498 66.6102L166.054 69.2513L168.13 66.2191L165.654 64.5242ZM171.081 69.1267L172.967 71.4593L173.02 71.4165L173.071 71.3713L171.081 69.1267ZM170.125 70.0039L167.708 68.2261L166.854 69.3876L167.227 70.7803L170.125 70.0039ZM171.381 86.2834C171.013 84.9074 171.729 83.9259 171.974 83.642C172.246 83.3266 172.507 83.1715 172.545 83.1487C172.657 83.0806 172.661 83.0957 172.424 83.1844C172.001 83.3432 171.254 83.5741 170.116 83.879L171.669 89.6746C172.849 89.3583 173.825 89.067 174.531 88.8025C174.859 88.6796 175.279 88.5078 175.658 88.2776C175.829 88.1737 176.187 87.9436 176.518 87.5595C176.822 87.207 177.561 86.1629 177.177 84.7305L171.381 86.2834ZM170.203 83.857C168.598 84.2359 167.467 84.4684 166.76 84.5768C166.384 84.6344 166.254 84.6368 166.276 84.6368C166.292 84.6369 166.344 84.6374 166.421 84.6451C166.492 84.652 166.638 84.67 166.824 84.7219C166.993 84.7689 167.338 84.8818 167.711 85.1515C168.115 85.4443 168.605 85.9667 168.818 86.7632L163.023 88.3161C163.472 89.9949 164.963 90.432 165.217 90.5026C165.662 90.6265 166.062 90.6365 166.264 90.6368C166.717 90.6377 167.217 90.5769 167.67 90.5074C168.621 90.3615 169.941 90.0838 171.582 89.6966L170.203 83.857ZM168.818 86.7632L164.625 71.1152L158.83 72.6681L163.023 88.3161L168.818 86.7632ZM160.951 68.9939L159.695 69.3303L161.248 75.1259L162.504 74.7894L160.951 68.9939ZM159.695 69.3303C159.909 69.2731 160.188 69.2507 160.491 69.3156C160.787 69.379 160.995 69.5019 161.109 69.5888C161.214 69.6688 161.235 69.7135 161.192 69.6539C161.15 69.5962 161.073 69.4742 160.972 69.2607L155.548 71.8254C155.961 72.6976 156.558 73.6642 157.473 74.3613C158.521 75.1601 159.863 75.4972 161.248 75.1259L159.695 69.3303ZM161.006 69.335C160.891 69.0718 160.797 68.8061 160.725 68.5368L154.929 70.0897C155.082 70.6575 155.277 71.2116 155.514 71.7511L161.006 69.335ZM160.725 68.5368C160.56 67.9216 160.505 67.2458 160.587 66.4856L154.622 65.8416C154.466 67.2847 154.559 68.7086 154.929 70.0897L160.725 68.5368ZM160.58 66.5421C160.636 66.1048 160.732 66.0139 160.689 66.071C160.665 66.103 160.624 66.145 160.571 66.1799C160.52 66.2135 160.493 66.2178 160.516 66.2116L158.963 60.4161C157.749 60.7414 156.674 61.423 155.887 62.4733C155.133 63.4803 154.773 64.6504 154.628 65.785L160.58 66.5421ZM160.516 66.2116C161.261 66.012 161.878 66.0291 162.432 66.1875L164.082 60.4189C162.393 59.9358 160.665 59.96 158.963 60.4161L160.516 66.2116ZM162.432 66.1875C162.859 66.3097 163.15 66.4277 163.336 66.5223C163.525 66.6189 163.549 66.6623 163.498 66.6102L167.81 62.4382C166.794 61.3874 165.398 60.7954 164.082 60.4189L162.432 66.1875ZM168.13 66.2191C169.267 64.5582 170.831 63.4479 172.977 62.8728L171.424 57.0773C167.967 58.0034 165.167 59.9258 163.179 62.8294L168.13 66.2191ZM172.977 62.8728C175.296 62.2514 176.496 62.5926 177.159 63.0624L180.628 58.1665C177.969 56.2826 174.707 56.1976 171.424 57.0773L172.977 62.8728ZM177.159 63.0624C177.956 63.6264 179.008 65.0965 179.872 68.3238L185.668 66.7709C184.686 63.108 183.154 59.9561 180.628 58.1665L177.159 63.0624ZM179.872 68.3238L183.755 82.8127L189.55 81.2598L185.668 66.7709L179.872 68.3238ZM183.755 82.8127C183.508 81.8942 183.774 81.1143 184.044 80.659C184.281 80.2588 184.55 80.0445 184.626 79.9862C184.782 79.8653 184.823 79.8755 184.561 79.9865C184.093 80.1847 183.231 80.4683 181.878 80.831L183.431 86.6265C184.846 86.2472 186.035 85.8778 186.9 85.5118C187.304 85.3408 187.832 85.0911 188.296 84.7326C188.525 84.5554 188.903 84.2279 189.204 83.7199C189.538 83.157 189.822 82.2749 189.55 81.2598L183.755 82.8127ZM181.878 80.831C180.541 81.1892 179.667 81.3706 179.173 81.431C178.895 81.4649 178.932 81.4347 179.133 81.4628C179.231 81.4765 179.573 81.5298 179.979 81.7609C180.441 82.0239 181.049 82.5664 181.291 83.4727L175.496 85.0256C175.765 86.0286 176.44 86.6501 177.01 86.9747C177.524 87.2674 178.015 87.3648 178.303 87.4051C178.885 87.4865 179.468 87.4396 179.9 87.3867C180.826 87.2736 182.031 87.0016 183.431 86.6265L181.878 80.831ZM181.291 83.4727L177.552 69.5151L171.756 71.068L175.496 85.0256L181.291 83.4727ZM177.552 69.5151C177.269 68.4609 176.75 67.1988 175.675 66.2958C174.416 65.2397 172.889 65.0705 171.54 65.4319L173.093 71.2274C173.03 71.2442 172.832 71.2844 172.552 71.2325C172.254 71.1776 171.999 71.0442 171.817 70.8915C171.653 70.7539 171.603 70.6475 171.619 70.678C171.636 70.709 171.691 70.8253 171.756 71.068L177.552 69.5151ZM171.54 65.4319C170.507 65.7087 169.656 66.3798 169.09 66.8821L173.071 71.3713C173.156 71.2962 173.226 71.2383 173.282 71.1946C173.338 71.1506 173.375 71.1258 173.392 71.1148C173.41 71.1032 173.397 71.113 173.355 71.133C173.315 71.1524 173.226 71.1919 173.093 71.2274L171.54 65.4319ZM169.194 66.794C168.742 67.1599 168.104 67.6885 167.708 68.2261L172.542 71.7816C172.501 71.8363 172.469 71.8746 172.452 71.8946C172.434 71.9154 172.423 71.9269 172.422 71.9281C172.421 71.9288 172.44 71.9091 172.488 71.8656C172.584 71.7774 172.738 71.6443 172.967 71.4593L169.194 66.794ZM167.227 70.7803L171.381 86.2834L177.177 84.7305L173.023 69.2274L167.227 70.7803ZM208.77 75.1781L206.828 72.8917L206.726 72.9778L206.633 73.0726L208.77 75.1781ZM192.492 77.9868L190.992 80.5849L191.002 80.5904L191.012 80.5959L192.492 77.9868ZM187.43 59.673L184.76 58.3056L184.754 58.3157L184.749 58.3259L187.43 59.673ZM202.6 54.4694L201.175 57.1092L201.187 57.1158L201.199 57.1222L202.6 54.4694ZM196.642 70.8703L195.865 67.9725L192.968 68.749L193.744 71.6468L196.642 70.8703ZM197.958 72.6917L196.841 75.4758L196.937 75.5145L197.036 75.5464L197.958 72.6917ZM206.476 69.3222L208.481 71.5542L208.836 71.2354L209.074 70.8223L206.476 69.3222ZM207.092 69.8819L204.901 71.9307L204.92 71.9516L204.94 71.9722L207.092 69.8819ZM195.031 62.3468L197.495 64.0574L197.501 64.0496L197.506 64.0417L195.031 62.3468ZM195.231 65.606L192.334 66.3825L193.11 69.2803L196.008 68.5038L195.231 65.606ZM206.633 73.0726C205.409 74.3151 203.496 75.4006 200.648 76.1637L202.201 81.9593C205.728 81.0142 208.713 79.5108 210.907 77.2836L206.633 73.0726ZM200.648 76.1637C198.191 76.8223 196.027 76.5436 193.973 75.3777L191.012 80.5959C194.492 82.5712 198.284 83.0089 202.201 81.9593L200.648 76.1637ZM193.992 75.3887C192.061 74.2738 190.559 72.3153 189.686 69.0589L183.89 70.6118C185.071 75.0185 187.371 78.4942 190.992 80.5849L193.992 75.3887ZM189.686 69.0589C188.796 65.7368 189.049 63.133 190.11 61.0201L184.749 58.3259C182.885 62.0355 182.71 66.2065 183.89 70.6118L189.686 69.0589ZM190.1 61.0404C191.202 58.8893 192.863 57.5442 195.279 56.897L193.726 51.1014C189.702 52.1796 186.649 54.6171 184.76 58.3056L190.1 61.0404ZM195.279 56.897C198.02 56.1624 199.876 56.4079 201.175 57.1092L204.025 51.8295C200.967 50.1785 197.424 50.1105 193.726 51.1014L195.279 56.897ZM201.199 57.1222C202.695 57.912 203.556 59.0037 203.963 60.5228L209.759 58.9699C208.906 55.7882 206.927 53.3619 204.001 51.8166L201.199 57.1222ZM203.963 60.5228C204.512 62.572 204.221 63.7647 203.699 64.5409C203.118 65.4043 201.836 66.3727 199.198 67.0796L200.751 72.8752C204.101 71.9774 206.962 70.4383 208.676 67.8913C210.449 65.2572 210.607 62.1368 209.759 58.9699L203.963 60.5228ZM199.198 67.0796L195.865 67.9725L197.418 73.7681L200.751 72.8752L199.198 67.0796ZM193.744 71.6468C194.121 73.0521 194.974 74.7265 196.841 75.4758L199.076 69.9076C199.204 69.9592 199.319 70.0285 199.415 70.1058C199.508 70.1816 199.566 70.2513 199.597 70.2929C199.649 70.3659 199.604 70.3354 199.54 70.0939L193.744 71.6468ZM197.036 75.5464C198.462 76.0071 199.952 75.8328 201.243 75.4866L199.691 69.6911C199.334 69.7867 199.091 69.8181 198.944 69.8241C198.798 69.8301 198.794 69.8092 198.88 69.837L197.036 75.5464ZM201.243 75.4866C203.958 74.7593 206.381 73.4404 208.481 71.5542L204.472 67.0903C203.067 68.3517 201.484 69.2106 199.691 69.6911L201.243 75.4866ZM209.074 70.8223C208.671 71.5214 208.011 72.0137 207.259 72.215C206.613 72.3882 206.078 72.3009 205.815 72.2398C205.314 72.1235 204.976 71.9028 204.917 71.8647C204.798 71.7895 204.718 71.725 204.689 71.7018C204.654 71.673 204.633 71.654 204.63 71.6517C204.626 71.6479 204.647 71.6668 204.7 71.7207C204.75 71.7716 204.816 71.8406 204.901 71.9307L209.284 67.8331C209.079 67.6145 208.863 67.3905 208.666 67.2114C208.59 67.1427 208.394 66.9661 208.139 66.8038C208.051 66.7474 207.69 66.5157 207.172 66.3953C206.9 66.3322 206.358 66.2448 205.706 66.4195C204.949 66.6224 204.285 67.118 203.878 67.8222L209.074 70.8223ZM204.94 71.9722C205.931 72.9921 206.231 73.6231 206.298 73.8734L212.094 72.3205C211.643 70.639 210.541 69.1266 209.244 67.7916L204.94 71.9722ZM206.298 73.8734C206.344 74.0462 206.288 73.9609 206.338 73.7161C206.365 73.5856 206.418 73.4296 206.512 73.2699C206.607 73.1099 206.72 72.9836 206.828 72.8917L210.712 77.4645C212.463 75.9771 212.511 73.8785 212.094 72.3205L206.298 73.8734ZM201.891 62.0616C201.595 60.9561 200.959 59.6636 199.622 58.8696C198.268 58.066 196.818 58.1411 195.693 58.4424L197.246 64.238C197.441 64.1856 197.072 64.3335 196.559 64.0292C196.063 63.7344 196.029 63.3678 196.095 63.6145L201.891 62.0616ZM195.693 58.4424C194.412 58.7855 193.321 59.5346 192.556 60.652L197.506 64.0417C197.486 64.0707 197.442 64.1234 197.371 64.1728C197.338 64.1955 197.308 64.212 197.284 64.2232C197.26 64.2342 197.246 64.238 197.246 64.238L195.693 58.4424ZM192.566 60.6363C191.601 62.0275 191.586 63.5917 191.932 64.8853L197.728 63.3324C197.708 63.2573 197.737 63.3185 197.719 63.4768C197.698 63.6546 197.628 63.8662 197.495 64.0574L192.566 60.6363ZM191.932 64.8853L192.334 66.3825L198.129 64.8296L197.728 63.3324L191.932 64.8853ZM196.008 68.5038L198.616 67.805L197.063 62.0094L194.455 62.7082L196.008 68.5038ZM198.616 67.805C199.616 67.537 200.823 66.9321 201.545 65.6375C202.255 64.3631 202.151 63.0343 201.891 62.0616L196.095 63.6145C196.128 63.7366 195.978 63.3 196.304 62.7153C196.642 62.1104 197.125 61.9928 197.063 62.0094L198.616 67.805Z" fill="#E85A5A" mask="url(#path-3-outside-2_217_2596)"/>
</g>
<defs>
<filter id="filter0_d_217_2596" x="24.6316" y="33.6353" width="190.694" height="89.2295" filterUnits="userSpaceOnUse" color-interpolation-filters="sRGB">
<feFlood flood-opacity="0" result="BackgroundImageFix"/>
<feColorMatrix in="SourceAlpha" type="matrix" values="0 0 0 0 0 0 0 0 0 0 0 0 0 0 0 0 0 0 127 0" result="hardAlpha"/>
<feOffset dy="-4"/>
<feGaussianBlur stdDeviation="2"/>
<feComposite in2="hardAlpha" operator="out"/>
<feColorMatrix type="matrix" values="0 0 0 0 0 0 0 0 0 0 0 0 0 0 0 0 0 0 0.15 0"/>
<feBlend mode="normal" in2="BackgroundImageFix" result="effect1_dropShadow_217_2596"/>
<feBlend mode="normal" in="SourceGraphic" in2="effect1_dropShadow_217_2596" result="shape"/>
</filter>
</defs>
</svg>
